<svg width="293" height="75" viewBox="0 0 293 75" fill="none" xmlns="http://www.w3.org/2000/svg">
<path d="M112.695 44.9768V0.867325H125.086V44.9768H112.695ZM99.4997 11.3991V0.867325H138.343V11.3991H99.4997Z" fill="#3660A1"/>
<path d="M93.3045 44.9768L77.8786 21.9928L92.5611 0.867325H107.491L90.5167 23.7894L90.4548 19.8245L108.173 44.9768H93.3045ZM66.5415 44.9768V0.867325H78.9318V44.9768H66.5415Z" fill="#1C262D"/>
<path fill-rule="evenodd" clip-rule="evenodd" d="M159.809 36.0558H153.8V26.5152H159.809C160.883 26.5152 161.792 26.7011 162.535 27.0728C163.32 27.4445 163.919 28.0021 164.332 28.7455C164.786 29.4476 165.013 30.2943 165.013 31.2855C165.013 32.7723 164.538 33.9494 163.589 34.8167C162.639 35.6428 161.379 36.0558 159.809 36.0558ZM153.8 17.9659H159.252C160.574 17.9659 161.668 17.6355 162.535 16.9747C163.403 16.3139 163.836 15.2814 163.836 13.8771C163.836 12.4729 163.403 11.4404 162.535 10.7796C161.668 10.1187 160.574 9.78834 159.252 9.78834H153.8V17.9659ZM153.8 0.867322H162.721C165.406 0.867322 167.739 1.38358 169.722 2.41611C171.745 3.40733 173.315 4.79092 174.43 6.56686C175.545 8.3015 176.103 10.3046 176.103 12.5762C176.103 15.715 174.988 18.2757 172.757 20.2581C172.251 20.7082 171.691 21.1147 171.079 21.4775C172.002 21.9757 172.83 22.5604 173.563 23.2318C176.041 25.5034 177.28 28.4151 177.28 31.967C177.28 34.5276 176.64 36.7992 175.359 38.7816C174.079 40.7228 172.282 42.2509 169.97 43.366C167.698 44.4399 165.034 44.9768 161.978 44.9768H153.8H151.694H141.658V0.867322H151.694H153.8ZM191.911 44.1095C194.844 45.2659 198.045 45.8441 201.514 45.8441C204.942 45.8441 208.101 45.2865 210.993 44.1714C213.884 43.015 216.403 41.4042 218.551 39.3392C220.698 37.2328 222.35 34.7961 223.507 32.0289C224.704 29.2205 225.303 26.1848 225.303 22.9221C225.303 19.618 224.704 16.5823 223.507 13.8152C222.35 11.0067 220.698 8.56995 218.551 6.50491C216.403 4.43986 213.863 2.84977 210.931 1.73464C208.04 0.578215 204.859 0 201.39 0C197.921 0 194.72 0.578215 191.788 1.73464C188.897 2.84977 186.377 4.43986 184.229 6.50491C182.082 8.56995 180.409 10.9861 179.211 13.7532C178.055 16.5204 177.477 19.556 177.477 22.8601C177.477 26.1229 178.076 29.1585 179.273 31.967C180.471 34.7754 182.144 37.2122 184.291 39.2772C186.48 41.3423 189.02 42.953 191.911 44.1095ZM240.008 0.867322H227.618V44.9768H237.716H240.008H258.346V34.445H240.008V0.867322ZM267.063 11.3991V44.9768H279.454V11.3991H292.711V0.867322H279.454H267.063H253.868V11.3991H267.063ZM211.662 16.8179L208.279 10.4996L201.116 10.7292L193.952 10.4996L190.57 16.8179L186.789 22.9066L190.57 28.9952L193.952 35.3135L201.116 35.0839L208.279 35.3135L211.662 28.9952L215.442 22.9066L211.662 16.8179Z" fill="#1C262D"/>
<path fill-rule="evenodd" clip-rule="evenodd" d="M210.552 17.5066L207.535 11.8714L201.146 12.0762L194.757 11.8714L191.74 17.5066L188.369 22.9371L191.74 28.3675L194.757 34.0027L201.146 33.798L207.535 34.0027L210.552 28.3675L213.924 22.9371L210.552 17.5066ZM212.101 22.9371L209.21 18.2814L206.623 13.4502L201.146 13.6258L195.669 13.4502L193.082 18.2814L190.192 22.9371L193.082 27.5927L195.669 32.4239L201.146 32.2484L206.623 32.4239L209.21 27.5927L212.101 22.9371Z" fill="#1C262D"/>
<path d="M79.7062 48.7248V59.6903H76.2834V54.223L74.5952 59.6903H71.6525L69.9643 54.223V59.6903H66.526V48.7248H70.7387L73.1548 55.3072L75.509 48.7248H79.7062Z" fill="#1C262D"/>
<path d="M95.4136 58.0331H91.7584L91.2164 59.6903H87.6077L91.619 48.7248H95.5839L99.5798 59.6903H95.9557L95.4136 58.0331ZM94.5772 55.4466L93.586 52.3955L92.5948 55.4466H94.5772Z" fill="#1C262D"/>
<path d="M118.002 59.6903H114.563L110.924 54.1766V59.6903H107.485V48.7248H110.924L114.563 54.3315V48.7248H118.002V59.6903Z" fill="#1C262D"/>
<path d="M130.04 48.7248V54.9045C130.04 55.4104 130.149 55.8131 130.366 56.1126C130.593 56.4017 130.954 56.5462 131.45 56.5462C131.945 56.5462 132.312 56.4017 132.549 56.1126C132.787 55.8131 132.906 55.4104 132.906 54.9045V48.7248H136.328V54.9045C136.328 55.9474 136.112 56.8405 135.678 57.5839C135.244 58.317 134.651 58.8694 133.897 59.2411C133.143 59.6128 132.302 59.7987 131.372 59.7987C130.443 59.7987 129.617 59.6128 128.894 59.2411C128.182 58.8694 127.624 58.317 127.222 57.5839C126.819 56.8508 126.618 55.9577 126.618 54.9045V48.7248H130.04Z" fill="#1C262D"/>
<path d="M152.68 48.7248V51.4507H148.374V52.9685H151.472V55.555H148.374V59.6903H144.936V48.7248H152.68Z" fill="#1C262D"/>
<path d="M168 58.0331H164.345L163.803 59.6903H160.194L164.206 48.7248H168.171L172.167 59.6903H168.542L168 58.0331ZM167.164 55.4466L166.173 52.3955L165.181 55.4466H167.164Z" fill="#1C262D"/>
<path d="M179.762 54.1921C179.762 53.1079 179.979 52.1425 180.413 51.2958C180.857 50.4492 181.487 49.7935 182.302 49.3289C183.118 48.8539 184.078 48.6164 185.183 48.6164C186.133 48.6164 186.98 48.7971 187.723 49.1585C188.477 49.5096 189.086 50.0103 189.551 50.6608C190.026 51.3113 190.341 52.0702 190.495 52.9375H186.871C186.706 52.5762 186.469 52.2974 186.159 52.1012C185.859 51.8947 185.514 51.7914 185.121 51.7914C184.543 51.7914 184.083 52.0083 183.743 52.4419C183.412 52.8756 183.247 53.459 183.247 54.1921C183.247 54.9252 183.412 55.5085 183.743 55.9422C184.083 56.3759 184.543 56.5927 185.121 56.5927C185.514 56.5927 185.859 56.4946 186.159 56.2984C186.469 56.0919 186.706 55.808 186.871 55.4466H190.495C190.341 56.3139 190.026 57.0728 189.551 57.7233C189.086 58.3738 188.477 58.8797 187.723 59.2411C186.98 59.5922 186.133 59.7677 185.183 59.7677C184.078 59.7677 183.118 59.5354 182.302 59.0707C181.487 58.5958 180.857 57.935 180.413 57.0883C179.979 56.2416 179.762 55.2762 179.762 54.1921Z" fill="#1C262D"/>
<path d="M207.469 48.7248V51.4507H204.557V59.6903H201.119V51.4507H198.238V48.7248H207.469Z" fill="#1C262D"/>
<path d="M218.887 48.7248V54.9045C218.887 55.4104 218.995 55.8131 219.212 56.1126C219.439 56.4017 219.801 56.5462 220.296 56.5462C220.792 56.5462 221.158 56.4017 221.396 56.1126C221.633 55.8131 221.752 55.4104 221.752 54.9045V48.7248H225.175V54.9045C225.175 55.9474 224.958 56.8405 224.524 57.5839C224.091 58.317 223.497 58.8694 222.743 59.2411C221.99 59.6128 221.148 59.7987 220.219 59.7987C219.29 59.7987 218.464 59.6128 217.741 59.2411C217.028 58.8694 216.471 58.317 216.068 57.5839C215.665 56.8508 215.464 55.9577 215.464 54.9045V48.7248H218.887Z" fill="#1C262D"/>
<path d="M239.296 59.6903L237.236 55.7563H237.221V59.6903H233.782V48.7248H238.893C239.781 48.7248 240.54 48.8849 241.17 49.205C241.8 49.5147 242.27 49.9432 242.579 50.4905C242.9 51.0274 243.06 51.6366 243.06 52.318C243.06 53.0511 242.853 53.7016 242.44 54.2695C242.037 54.8374 241.454 55.2452 240.69 55.493L243.075 59.6903H239.296ZM237.221 53.4641H238.584C238.914 53.4641 239.162 53.3919 239.327 53.2473C239.492 53.0924 239.575 52.8549 239.575 52.5349C239.575 52.2458 239.487 52.0186 239.312 51.8534C239.146 51.6882 238.904 51.6056 238.584 51.6056H237.221V53.4641Z" fill="#1C262D"/>
<path d="M254.721 48.7248V59.6903H251.282V48.7248H254.721Z" fill="#1C262D"/>
<path d="M273.914 59.6903H270.476L266.836 54.1766V59.6903H263.398V48.7248H266.836L270.476 54.3315V48.7248H273.914V59.6903Z" fill="#1C262D"/>
<path d="M289.314 52.4729C289.18 52.2561 288.989 52.0909 288.741 51.9773C288.493 51.8534 288.194 51.7914 287.843 51.7914C287.182 51.7914 286.671 52.0083 286.309 52.4419C285.948 52.8653 285.767 53.4486 285.767 54.1921C285.767 55.0491 285.969 55.6892 286.371 56.1126C286.774 56.5359 287.393 56.7476 288.23 56.7476C289.025 56.7476 289.665 56.4275 290.15 55.7873H287.409V53.3557H293V56.794C292.525 57.6097 291.869 58.3118 291.033 58.9004C290.197 59.4786 289.138 59.7677 287.858 59.7677C286.722 59.7677 285.731 59.5354 284.884 59.0707C284.048 58.5958 283.403 57.935 282.948 57.0883C282.504 56.2416 282.282 55.2762 282.282 54.1921C282.282 53.1079 282.504 52.1425 282.948 51.2958C283.403 50.4492 284.048 49.7935 284.884 49.3289C285.721 48.8539 286.702 48.6164 287.827 48.6164C289.262 48.6164 290.429 48.9623 291.327 49.6541C292.236 50.3459 292.773 51.2855 292.938 52.4729H289.314Z" fill="#1C262D"/>
<path d="M58.8526 6.70416C58.7929 3.05279 55.8682 0.0598585 52.2272 0H0V8.91892H49.9591V25.4997H12.9523V34.4187H49.9591V50.8798H12.9523V59.7987H52.2272C55.9279 59.7388 58.9123 56.7459 58.9123 53.0347V32.0243L55.331 29.9293L58.9123 27.7145L58.8526 6.70416Z" fill="#3660A1"/>
<path d="M0 12.4506H46.2584V21.3695H8.89355V38.07H46.2584V46.8094H8.95324V59.7987H0V12.4506Z" fill="#1C262D"/>
<path fill-rule="evenodd" clip-rule="evenodd" d="M292.502 63.2589H0V62.7886H292.502V63.2589Z" fill="black"/>
<path d="M0 74.0749L3.18601 65.7042H5.58434L8.73508 74.0749H6.28973L3.95018 66.9622H4.79665L2.39833 74.0749H0ZM2.06914 72.6641V70.8301H6.74823V72.6641H2.06914Z" fill="#1D262D" fill-opacity="0.5"/>
<path d="M18.59 74.0749V72.3819H20.1301C20.4279 72.3819 20.6669 72.3035 20.8472 72.1468C21.0275 71.9822 21.1176 71.7588 21.1176 71.4767C21.1176 71.2886 21.0745 71.1279 20.9883 70.9946C20.9099 70.8536 20.7963 70.7478 20.6474 70.6772C20.5063 70.6067 20.3338 70.5714 20.1301 70.5714H18.59V68.949H20.0243C20.2751 68.949 20.4828 68.8863 20.6474 68.7609C20.8119 68.6355 20.8942 68.4396 20.8942 68.1731C20.8942 67.9066 20.8119 67.7107 20.6474 67.5853C20.4828 67.4599 20.2751 67.3972 20.0243 67.3972H18.59V65.7042H20.6826C21.1921 65.7042 21.6349 65.8022 22.0111 65.9981C22.3952 66.1862 22.693 66.4488 22.9046 66.7858C23.1162 67.115 23.222 67.4951 23.222 67.9262C23.222 68.5219 23.0104 69.0078 22.5872 69.384C22.1639 69.7602 21.5448 69.9758 20.7296 70.0306L20.7061 69.2194C21.5918 69.2743 22.2697 69.5173 22.74 69.9483C23.2103 70.3794 23.4454 70.9319 23.4454 71.606C23.4454 72.0919 23.3239 72.523 23.0809 72.8992C22.838 73.2676 22.497 73.5576 22.0581 73.7692C21.6271 73.973 21.1215 74.0749 20.5415 74.0749H18.59ZM16.6854 74.0749V65.7042H18.9897V74.0749H16.6854Z" fill="#1D262D" fill-opacity="0.5"/>
<path d="M27.139 74.0749V65.7042H29.4904V74.0749H27.139Z" fill="#1D262D" fill-opacity="0.5"/>
<path d="M35.4904 70.736V69.1136H36.9129C37.2343 69.1136 37.4772 69.0352 37.6418 68.8785C37.8143 68.7217 37.9005 68.514 37.9005 68.2554C37.9005 67.9967 37.8143 67.789 37.6418 67.6323C37.4772 67.4755 37.2343 67.3972 36.9129 67.3972H35.4904V65.7042H37.2891C37.8691 65.7042 38.3786 65.81 38.8175 66.0217C39.2564 66.2333 39.6012 66.5272 39.8521 66.9034C40.1029 67.2796 40.2283 67.7185 40.2283 68.2201C40.2283 68.7217 40.0989 69.1606 39.8403 69.5368C39.5895 69.9131 39.2368 70.207 38.7822 70.4186C38.3276 70.6302 37.7907 70.736 37.1716 70.736H35.4904ZM33.5858 74.0749V65.7042H35.9371V74.0749H33.5858ZM38.1003 74.0749L35.8196 70.5009L37.9357 70.0424L40.7691 74.0749H38.1003Z" fill="#1D262D" fill-opacity="0.5"/>
<path d="M44.0624 74.0749V65.7042H45.7671L48.8826 70.2657H48.1419L51.2457 65.7042H52.9504V74.0749H50.6226V69.5604L50.9635 69.6544L49.2588 72.0998H47.754L46.061 69.6544L46.3902 69.5604V74.0749H44.0624Z" fill="#1D262D" fill-opacity="0.5"/>
<path d="M57.0419 74.0749V65.7042H59.3932V74.0749H57.0419Z" fill="#1D262D" fill-opacity="0.5"/>
<path d="M63.4887 74.0749V65.7042H65.1346L65.84 67.4677V74.0749H63.4887ZM69.2494 74.0749L64.3939 67.9732L65.1346 65.7042L69.99 71.8058L69.2494 74.0749ZM69.2494 74.0749L68.6615 72.2173V65.7042H71.0128V74.0749H69.2494Z" fill="#1D262D" fill-opacity="0.5"/>
<path d="M79.2284 74.2159C78.5779 74.2159 77.9744 74.1101 77.4179 73.8985C76.8693 73.6791 76.3873 73.3734 75.9719 72.9815C75.5643 72.5896 75.2469 72.1311 75.0196 71.606C74.7923 71.0809 74.6787 70.5087 74.6787 69.8895C74.6787 69.2625 74.7962 68.6865 75.0314 68.1613C75.2743 67.6362 75.6074 67.1816 76.0307 66.7976C76.4617 66.4057 76.9594 66.1039 77.5237 65.8923C78.0881 65.6729 78.6916 65.5631 79.3342 65.5631C80.1102 65.5631 80.8038 65.6964 81.4151 65.9629C82.0343 66.2293 82.5359 66.5899 82.92 67.0445L81.3328 68.6316C81.0429 68.2946 80.7411 68.0438 80.4276 67.8792C80.1141 67.7146 79.7379 67.6323 79.299 67.6323C78.8836 67.6323 78.5074 67.7263 78.1703 67.9144C77.8333 68.0947 77.5629 68.3534 77.3591 68.6904C77.1632 69.0274 77.0652 69.4232 77.0652 69.8778C77.0652 70.3324 77.1554 70.7321 77.3356 71.0769C77.5237 71.414 77.7824 71.6765 78.1116 71.8646C78.4407 72.0527 78.8248 72.1468 79.2637 72.1468C79.6869 72.1468 80.0435 72.0645 80.3335 71.8999C80.6235 71.7353 80.843 71.5002 80.9919 71.1945C81.1487 70.8888 81.227 70.5283 81.227 70.1129L82.8377 71.1357L78.9463 71.0182V69.1371H83.5901V69.4898C83.5901 70.493 83.4059 71.3473 83.0375 72.0527C82.677 72.7581 82.1676 73.295 81.5092 73.6634C80.8587 74.0317 80.0984 74.2159 79.2284 74.2159Z" fill="#1D262D" fill-opacity="0.5"/>
<path d="M87.1744 74.0749V65.7042H89.5257V74.0749H87.1744ZM92.2297 74.0749V65.7042H94.5809V74.0749H92.2297ZM88.4558 70.783V68.8315H93.1467V70.783H88.4558Z" fill="#1D262D" fill-opacity="0.5"/>
<path d="M98.0497 74.0749L101.236 65.7042H103.634L106.785 74.0749H104.339L102 66.9622H102.846L100.448 74.0749H98.0497ZM100.119 72.6641V70.8301H104.798V72.6641H100.119Z" fill="#1D262D" fill-opacity="0.5"/>
<path d="M110.16 74.0749V65.7042H111.864L114.98 70.2657H114.239L117.343 65.7042H119.048V74.0749H116.72V69.5604L117.061 69.6544L115.356 72.0998H113.851L112.158 69.6544L112.487 69.5604V74.0749H110.16Z" fill="#1D262D" fill-opacity="0.5"/>
<path d="M127.956 74.0749V65.7042H130.307V74.0749H127.956ZM129.86 71.1005V69.1489H133.975V71.1005H129.86ZM129.86 67.6558V65.7042H134.151V67.6558H129.86Z" fill="#1D262D" fill-opacity="0.5"/>
<path d="M136.638 74.0749L139.824 65.7042H142.222L145.373 74.0749H142.928L140.588 66.9622H141.435L139.036 74.0749H136.638ZM138.707 72.6641V70.8301H143.386V72.6641H138.707Z" fill="#1D262D" fill-opacity="0.5"/>
<path d="M151.326 74.2159C150.613 74.2159 149.989 74.114 149.457 73.9103C148.931 73.6986 148.445 73.3655 147.999 72.911L149.468 71.4414C149.774 71.7314 150.095 71.9548 150.432 72.1115C150.769 72.2604 151.13 72.3349 151.514 72.3349C151.835 72.3349 152.078 72.2879 152.243 72.1938C152.407 72.0919 152.49 71.9548 152.49 71.7823C152.49 71.6099 152.419 71.4688 152.278 71.3591C152.137 71.2415 151.949 71.1396 151.714 71.0534C151.486 70.9594 151.232 70.8653 150.95 70.7713C150.675 70.6772 150.401 70.5636 150.127 70.4303C149.852 70.2971 149.598 70.1364 149.362 69.9483C149.135 69.7524 148.951 69.5133 148.81 69.2312C148.669 68.9412 148.598 68.5885 148.598 68.1731C148.598 67.6323 148.728 67.1659 148.986 66.7741C149.245 66.3822 149.609 66.0844 150.08 65.8806C150.55 65.669 151.102 65.5631 151.737 65.5631C152.364 65.5631 152.944 65.665 153.477 65.8688C154.018 66.0648 154.465 66.3469 154.817 66.7153L153.336 68.1848C153.078 67.934 152.819 67.7499 152.56 67.6323C152.302 67.5069 152.019 67.4442 151.714 67.4442C151.471 67.4442 151.275 67.4834 151.126 67.5618C150.985 67.6401 150.914 67.7577 150.914 67.9144C150.914 68.079 150.985 68.2162 151.126 68.3259C151.267 68.4278 151.451 68.5219 151.678 68.6081C151.914 68.6943 152.168 68.7844 152.443 68.8785C152.725 68.9725 153.003 69.0862 153.277 69.2194C153.552 69.3448 153.803 69.5094 154.03 69.7132C154.265 69.9091 154.453 70.156 154.594 70.4539C154.735 70.7517 154.806 71.1122 154.806 71.5354C154.806 72.3898 154.5 73.052 153.889 73.5223C153.285 73.9847 152.431 74.2159 151.326 74.2159Z" fill="#1D262D" fill-opacity="0.5"/>
<path d="M160.224 74.0749V65.7042H162.576V74.0749H160.224ZM157.72 67.7028V65.7042H165.092V67.7028H157.72Z" fill="#1D262D" fill-opacity="0.5"/>
<path d="M168.68 74.0749V65.7042H171.031V74.0749H168.68ZM170.584 74.0749V72.1233H175.075V74.0749H170.584ZM170.584 70.7595V68.855H174.64V70.7595H170.584ZM170.584 67.6558V65.7042H175.004V67.6558H170.584Z" fill="#1D262D" fill-opacity="0.5"/>
<path d="M178.892 74.0749V65.7042H180.538L181.243 67.4677V74.0749H178.892ZM184.653 74.0749L179.797 67.9732L180.538 65.7042L185.393 71.8058L184.653 74.0749ZM184.653 74.0749L184.065 72.2173V65.7042H186.416V74.0749H184.653Z" fill="#1D262D" fill-opacity="0.5"/>
<path d="M190.505 74.0749V65.7042H192.857V74.0749H190.505ZM192.41 74.0749V72.1233H196.901V74.0749H192.41ZM192.41 70.7595V68.855H196.466V70.7595H192.41ZM192.41 67.6558V65.7042H196.83V67.6558H192.41Z" fill="#1D262D" fill-opacity="0.5"/>
<path d="M202.622 70.736V69.1136H204.045C204.366 69.1136 204.609 69.0352 204.774 68.8785C204.946 68.7217 205.032 68.514 205.032 68.2554C205.032 67.9967 204.946 67.789 204.774 67.6323C204.609 67.4755 204.366 67.3972 204.045 67.3972H202.622V65.7042H204.421C205.001 65.7042 205.511 65.81 205.949 66.0217C206.388 66.2333 206.733 66.5272 206.984 66.9034C207.235 67.2796 207.36 67.7185 207.36 68.2201C207.36 68.7217 207.231 69.1606 206.972 69.5368C206.721 69.9131 206.369 70.207 205.914 70.4186C205.46 70.6302 204.923 70.736 204.304 70.736H202.622ZM200.718 74.0749V65.7042H203.069V74.0749H200.718ZM205.232 74.0749L202.952 70.5009L205.068 70.0424L207.901 74.0749H205.232Z" fill="#1D262D" fill-opacity="0.5"/>
<path d="M220.31 74.2159C219.667 74.2159 219.068 74.1101 218.511 73.8985C217.963 73.6791 217.481 73.3734 217.065 72.9815C216.65 72.5896 216.324 72.1311 216.089 71.606C215.862 71.073 215.748 70.497 215.748 69.8778C215.748 69.2508 215.862 68.6747 216.089 68.1496C216.324 67.6245 216.646 67.1699 217.053 66.7858C217.469 66.4018 217.951 66.1039 218.499 65.8923C219.048 65.6729 219.644 65.5631 220.286 65.5631C220.937 65.5631 221.533 65.665 222.073 65.8688C222.614 66.0726 223.084 66.3548 223.484 66.7153L221.921 68.2907C221.732 68.0869 221.501 67.9262 221.227 67.8086C220.96 67.6911 220.647 67.6323 220.286 67.6323C219.973 67.6323 219.683 67.6832 219.416 67.7851C219.158 67.887 218.934 68.0359 218.746 68.2319C218.558 68.4278 218.409 68.6669 218.3 68.949C218.198 69.2233 218.147 69.5329 218.147 69.8778C218.147 70.2305 218.198 70.5479 218.3 70.8301C218.409 71.1044 218.558 71.3395 218.746 71.5354C218.934 71.7314 219.158 71.8842 219.416 71.994C219.683 72.0958 219.973 72.1468 220.286 72.1468C220.639 72.1468 220.953 72.0919 221.227 71.9822C221.509 71.8725 221.752 71.7118 221.956 71.5002L223.531 73.0756C223.116 73.4361 222.649 73.7182 222.132 73.922C221.615 74.118 221.007 74.2159 220.31 74.2159Z" fill="#1D262D" fill-opacity="0.5"/>
<path d="M230.855 74.2394C230.197 74.2394 229.59 74.1297 229.033 73.9103C228.484 73.6908 228.002 73.3851 227.587 72.9933C227.18 72.6014 226.862 72.1389 226.635 71.606C226.408 71.073 226.294 70.497 226.294 69.8778C226.294 69.2508 226.404 68.6747 226.623 68.1496C226.85 67.6245 227.168 67.1659 227.575 66.7741C227.983 66.3822 228.461 66.0804 229.01 65.8688C229.566 65.6494 230.174 65.5396 230.832 65.5396C231.49 65.5396 232.094 65.6494 232.642 65.8688C233.199 66.0804 233.681 66.3822 234.088 66.7741C234.496 67.1659 234.809 67.6284 235.029 68.1613C235.256 68.6865 235.37 69.2625 235.37 69.8895C235.37 70.5087 235.256 71.0848 235.029 71.6177C234.809 72.1429 234.496 72.6053 234.088 73.005C233.681 73.3969 233.203 73.7026 232.654 73.922C232.105 74.1336 231.506 74.2394 230.855 74.2394ZM230.832 72.1703C231.271 72.1703 231.651 72.0762 231.972 71.8881C232.294 71.7 232.54 71.4336 232.713 71.0887C232.885 70.7438 232.972 70.3402 232.972 69.8778C232.972 69.5329 232.921 69.2233 232.819 68.949C232.725 68.6669 232.584 68.4278 232.395 68.2319C232.207 68.0281 231.98 67.8753 231.714 67.7734C231.455 67.6636 231.161 67.6088 230.832 67.6088C230.393 67.6088 230.013 67.7028 229.691 67.8909C229.37 68.0712 229.123 68.3338 228.951 68.6786C228.778 69.0156 228.692 69.4154 228.692 69.8778C228.692 70.2305 228.739 70.5479 228.833 70.8301C228.935 71.1122 229.08 71.3552 229.268 71.559C229.456 71.7549 229.68 71.9077 229.938 72.0175C230.205 72.1194 230.503 72.1703 230.832 72.1703Z" fill="#1D262D" fill-opacity="0.5"/>
<path d="M239.042 74.0749V65.7042H240.747L243.862 70.2657H243.122L246.225 65.7042H247.93V74.0749H245.602V69.5604L245.943 69.6544L244.239 72.0998H242.734L241.041 69.6544L241.37 69.5604V74.0749H239.042Z" fill="#1D262D" fill-opacity="0.5"/>
<path d="M253.926 71.1357V69.4428H255.443C255.623 69.4428 255.788 69.4075 255.936 69.337C256.093 69.2586 256.219 69.145 256.313 68.996C256.407 68.8393 256.454 68.6473 256.454 68.42C256.454 68.1927 256.407 68.0046 256.313 67.8557C256.219 67.6989 256.093 67.5853 255.936 67.5147C255.788 67.4363 255.623 67.3972 255.443 67.3972H253.926V65.7042H255.901C256.442 65.7042 256.928 65.814 257.359 66.0334C257.798 66.245 258.143 66.5546 258.394 66.9622C258.652 67.3619 258.782 67.8478 258.782 68.42C258.782 68.9843 258.652 69.4702 258.394 69.8778C258.143 70.2853 257.798 70.5988 257.359 70.8183C256.928 71.0299 256.442 71.1357 255.901 71.1357H253.926ZM252.022 74.0749V65.7042H254.373V74.0749H252.022Z" fill="#1D262D" fill-opacity="0.5"/>
<path d="M261.232 74.0749L264.418 65.7042H266.816L269.967 74.0749H267.522L265.182 66.9622H266.029L263.63 74.0749H261.232ZM263.301 72.6641V70.8301H267.98V72.6641H263.301Z" fill="#1D262D" fill-opacity="0.5"/>
<path d="M273.342 74.0749V65.7042H274.988L275.693 67.4677V74.0749H273.342ZM279.103 74.0749L274.247 67.9732L274.988 65.7042L279.844 71.8058L279.103 74.0749ZM279.103 74.0749L278.515 72.2173V65.7042H280.866V74.0749H279.103Z" fill="#1D262D" fill-opacity="0.5"/>
<path d="M287.495 71.1945L284.309 65.7042H287.013L289.423 70.1835H287.401L289.811 65.7042H292.456L289.246 71.1945H287.495ZM287.224 74.0749V70.3363H289.576V74.0749H287.224Z" fill="#1D262D" fill-opacity="0.5"/>
</svg>
