<?xml version="1.0" encoding="utf-8"?>
<!-- Generator: Adobe Illustrator 26.1.0, SVG Export Plug-In . SVG Version: 6.00 Build 0)  -->
<svg version="1.1" id="Layer_1" xmlns="http://www.w3.org/2000/svg" xmlns:xlink="http://www.w3.org/1999/xlink" x="0px" y="0px"
	 viewBox="0 0 293 75" style="enable-background:new 0 0 293 75;" xml:space="preserve">
<style type="text/css">
	.st0{fill-rule:evenodd;clip-rule:evenodd;}
	.st1{fill-opacity:0.5;}
</style>
<path d="M112.7,45V0.9h12.4V45H112.7z M99.5,11.4V0.9h38.8v10.5H99.5z"/>
<path d="M93.3,45L77.9,22L92.6,0.9h14.9l-17,22.9l-0.1-4L108.2,45H93.3z M66.5,45V0.9h12.4V45H66.5z"/>
<path class="st0" d="M159.8,36.1h-6v-9.5h6c1.1,0,2,0.2,2.7,0.6c0.8,0.4,1.4,0.9,1.8,1.7c0.5,0.7,0.7,1.5,0.7,2.5
	c0,1.5-0.5,2.7-1.4,3.5C162.6,35.6,161.4,36.1,159.8,36.1z M153.8,18h5.5c1.3,0,2.4-0.3,3.3-1c0.9-0.7,1.3-1.7,1.3-3.1
	c0-1.4-0.4-2.4-1.3-3.1c-0.9-0.7-2-1-3.3-1h-5.5V18z M153.8,0.9h8.9c2.7,0,5,0.5,7,1.5c2,1,3.6,2.4,4.7,4.2c1.1,1.7,1.7,3.7,1.7,6
	c0,3.1-1.1,5.7-3.3,7.7c-0.5,0.5-1.1,0.9-1.7,1.2c0.9,0.5,1.8,1.1,2.5,1.8c2.5,2.3,3.7,5.2,3.7,8.7c0,2.6-0.6,4.8-1.9,6.8
	c-1.3,1.9-3.1,3.5-5.4,4.6c-2.3,1.1-4.9,1.6-8,1.6h-8.2h-2.1h-10V0.9h10H153.8z M191.9,44.1c2.9,1.2,6.1,1.7,9.6,1.7
	c3.4,0,6.6-0.6,9.5-1.7c2.9-1.2,5.4-2.8,7.6-4.8c2.1-2.1,3.8-4.5,5-7.3c1.2-2.8,1.8-5.8,1.8-9.1c0-3.3-0.6-6.3-1.8-9.1
	c-1.2-2.8-2.8-5.2-5-7.3c-2.1-2.1-4.7-3.7-7.6-4.8C208,0.6,204.9,0,201.4,0s-6.7,0.6-9.6,1.7c-2.9,1.1-5.4,2.7-7.6,4.8
	c-2.1,2.1-3.8,4.5-5,7.2c-1.2,2.8-1.7,5.8-1.7,9.1c0,3.3,0.6,6.3,1.8,9.1c1.2,2.8,2.9,5.2,5,7.3C186.5,41.3,189,43,191.9,44.1z
	 M240,0.9h-12.4V45h10.1h2.3h18.3V34.4H240V0.9z M267.1,11.4V45h12.4V11.4h13.3V0.9h-13.3h-12.4h-13.2v10.5H267.1z M211.7,16.8
	l-3.4-6.3l-7.2,0.2l-7.2-0.2l-3.4,6.3l-3.8,6.1l3.8,6.1l3.4,6.3l7.2-0.2l7.2,0.2l3.4-6.3l3.8-6.1L211.7,16.8z"/>
<path class="st0" d="M210.6,17.5l-3-5.6l-6.4,0.2l-6.4-0.2l-3,5.6l-3.4,5.4l3.4,5.4l3,5.6l6.4-0.2l6.4,0.2l3-5.6l3.4-5.4L210.6,17.5
	z M212.1,22.9l-2.9-4.7l-2.6-4.8l-5.5,0.2l-5.5-0.2l-2.6,4.8l-2.9,4.7l2.9,4.7l2.6,4.8l5.5-0.2l5.5,0.2l2.6-4.8L212.1,22.9z"/>
<path d="M79.7,48.7v11h-3.4v-5.5l-1.7,5.5h-2.9L70,54.2v5.5h-3.4v-11h4.2l2.4,6.6l2.4-6.6H79.7z"/>
<path d="M95.4,58h-3.7l-0.5,1.7h-3.6l4-11h4l4,11H96L95.4,58z M94.6,55.4l-1-3.1l-1,3.1H94.6z"/>
<path d="M118,59.7h-3.4l-3.6-5.5v5.5h-3.4v-11h3.4l3.6,5.6v-5.6h3.4V59.7z"/>
<path d="M130,48.7v6.2c0,0.5,0.1,0.9,0.3,1.2c0.2,0.3,0.6,0.4,1.1,0.4c0.5,0,0.9-0.1,1.1-0.4c0.2-0.3,0.4-0.7,0.4-1.2v-6.2h3.4v6.2
	c0,1-0.2,1.9-0.7,2.7c-0.4,0.7-1,1.3-1.8,1.7s-1.6,0.6-2.5,0.6c-0.9,0-1.8-0.2-2.5-0.6c-0.7-0.4-1.3-0.9-1.7-1.7
	c-0.4-0.7-0.6-1.6-0.6-2.7v-6.2H130z"/>
<path d="M152.7,48.7v2.7h-4.3V53h3.1v2.6h-3.1v4.1h-3.4v-11H152.7z"/>
<path d="M168,58h-3.7l-0.5,1.7h-3.6l4-11h4l4,11h-3.6L168,58z M167.2,55.4l-1-3.1l-1,3.1H167.2z"/>
<path d="M179.8,54.2c0-1.1,0.2-2,0.7-2.9c0.4-0.8,1.1-1.5,1.9-2c0.8-0.5,1.8-0.7,2.9-0.7c0.9,0,1.8,0.2,2.5,0.5
	c0.8,0.4,1.4,0.9,1.8,1.5c0.5,0.7,0.8,1.4,0.9,2.3h-3.6c-0.2-0.4-0.4-0.6-0.7-0.8c-0.3-0.2-0.6-0.3-1-0.3c-0.6,0-1,0.2-1.4,0.7
	c-0.3,0.4-0.5,1-0.5,1.8s0.2,1.3,0.5,1.8c0.3,0.4,0.8,0.7,1.4,0.7c0.4,0,0.7-0.1,1-0.3c0.3-0.2,0.5-0.5,0.7-0.9h3.6
	c-0.2,0.9-0.5,1.6-0.9,2.3c-0.5,0.7-1.1,1.2-1.8,1.5c-0.7,0.4-1.6,0.5-2.5,0.5c-1.1,0-2.1-0.2-2.9-0.7c-0.8-0.5-1.4-1.1-1.9-2
	C180,56.2,179.8,55.3,179.8,54.2z"/>
<path d="M207.5,48.7v2.7h-2.9v8.2h-3.4v-8.2h-2.9v-2.7H207.5z"/>
<path d="M218.9,48.7v6.2c0,0.5,0.1,0.9,0.3,1.2c0.2,0.3,0.6,0.4,1.1,0.4c0.5,0,0.9-0.1,1.1-0.4c0.2-0.3,0.4-0.7,0.4-1.2v-6.2h3.4
	v6.2c0,1-0.2,1.9-0.7,2.7c-0.4,0.7-1,1.3-1.8,1.7c-0.8,0.4-1.6,0.6-2.5,0.6s-1.8-0.2-2.5-0.6c-0.7-0.4-1.3-0.9-1.7-1.7
	s-0.6-1.6-0.6-2.7v-6.2H218.9z"/>
<path d="M239.3,59.7l-2.1-3.9h0v3.9h-3.4v-11h5.1c0.9,0,1.6,0.2,2.3,0.5c0.6,0.3,1.1,0.7,1.4,1.3c0.3,0.5,0.5,1.1,0.5,1.8
	c0,0.7-0.2,1.4-0.6,2c-0.4,0.6-1,1-1.8,1.2l2.4,4.2H239.3z M237.2,53.5h1.4c0.3,0,0.6-0.1,0.7-0.2c0.2-0.2,0.2-0.4,0.2-0.7
	c0-0.3-0.1-0.5-0.3-0.7c-0.2-0.2-0.4-0.2-0.7-0.2h-1.4V53.5z"/>
<path d="M254.7,48.7v11h-3.4v-11H254.7z"/>
<path d="M273.9,59.7h-3.4l-3.6-5.5v5.5h-3.4v-11h3.4l3.6,5.6v-5.6h3.4V59.7z"/>
<path d="M289.3,52.5c-0.1-0.2-0.3-0.4-0.6-0.5c-0.2-0.1-0.5-0.2-0.9-0.2c-0.7,0-1.2,0.2-1.5,0.7c-0.4,0.4-0.5,1-0.5,1.8
	c0,0.9,0.2,1.5,0.6,1.9c0.4,0.4,1,0.6,1.9,0.6c0.8,0,1.4-0.3,1.9-1h-2.7v-2.4h5.6v3.4c-0.5,0.8-1.1,1.5-2,2.1
	c-0.8,0.6-1.9,0.9-3.2,0.9c-1.1,0-2.1-0.2-3-0.7c-0.8-0.5-1.5-1.1-1.9-2c-0.4-0.8-0.7-1.8-0.7-2.9c0-1.1,0.2-2,0.7-2.9
	c0.5-0.8,1.1-1.5,1.9-2c0.8-0.5,1.8-0.7,2.9-0.7c1.4,0,2.6,0.3,3.5,1c0.9,0.7,1.4,1.6,1.6,2.8H289.3z"/>
<path d="M58.9,6.7c-0.1-3.7-3-6.6-6.6-6.7H0v8.9h50v16.6H13v8.9h37v16.5H13v8.9h39.3c3.7-0.1,6.7-3.1,6.7-6.8V32l-3.6-2.1l3.6-2.2
	L58.9,6.7z"/>
<path d="M0,12.5h46.3v8.9H8.9v16.7h37.4v8.7H9v13H0V12.5z"/>
<path class="st0" d="M292.5,63.3H0v-0.5h292.5V63.3z"/>
<g>
	<path class="st1" d="M0,74.1l3.2-8.4h2.4l3.2,8.4H6.3L4,67h0.8l-2.4,7.1H0z M2.1,72.7v-1.8h4.7v1.8H2.1z"/>
	<path class="st1" d="M18.6,74.1v-1.7h1.5c0.3,0,0.5-0.1,0.7-0.2c0.2-0.2,0.3-0.4,0.3-0.7c0-0.2,0-0.3-0.1-0.5
		c-0.1-0.1-0.2-0.2-0.3-0.3c-0.1-0.1-0.3-0.1-0.5-0.1h-1.5v-1.6H20c0.3,0,0.5-0.1,0.6-0.2c0.2-0.1,0.2-0.3,0.2-0.6
		c0-0.3-0.1-0.5-0.2-0.6c-0.2-0.1-0.4-0.2-0.6-0.2h-1.4v-1.7h2.1c0.5,0,1,0.1,1.3,0.3c0.4,0.2,0.7,0.5,0.9,0.8
		c0.2,0.3,0.3,0.7,0.3,1.1c0,0.6-0.2,1.1-0.6,1.5c-0.4,0.4-1,0.6-1.9,0.6l0-0.8c0.9,0.1,1.6,0.3,2,0.7c0.5,0.4,0.7,1,0.7,1.7
		c0,0.5-0.1,0.9-0.4,1.3c-0.2,0.4-0.6,0.7-1,0.9c-0.4,0.2-0.9,0.3-1.5,0.3H18.6z M16.7,74.1v-8.4H19v8.4H16.7z"/>
	<path class="st1" d="M27.1,74.1v-8.4h2.4v8.4H27.1z"/>
	<path class="st1" d="M35.5,70.7v-1.6h1.4c0.3,0,0.6-0.1,0.7-0.2c0.2-0.2,0.3-0.4,0.3-0.6c0-0.3-0.1-0.5-0.3-0.6
		c-0.2-0.2-0.4-0.2-0.7-0.2h-1.4v-1.7h1.8c0.6,0,1.1,0.1,1.5,0.3c0.4,0.2,0.8,0.5,1,0.9c0.3,0.4,0.4,0.8,0.4,1.3s-0.1,0.9-0.4,1.3
		c-0.3,0.4-0.6,0.7-1.1,0.9s-1,0.3-1.6,0.3H35.5z M33.6,74.1v-8.4h2.4v8.4H33.6z M38.1,74.1l-2.3-3.6l2.1-0.5l2.8,4H38.1z"/>
	<path class="st1" d="M44.1,74.1v-8.4h1.7l3.1,4.6h-0.7l3.1-4.6H53v8.4h-2.3v-4.5l0.3,0.1l-1.7,2.4h-1.5l-1.7-2.4l0.3-0.1v4.5H44.1z
		"/>
	<path class="st1" d="M57,74.1v-8.4h2.4v8.4H57z"/>
	<path class="st1" d="M63.5,74.1v-8.4h1.6l0.7,1.8v6.6H63.5z M69.2,74.1L64.4,68l0.7-2.3l4.9,6.1L69.2,74.1z M69.2,74.1l-0.6-1.9
		v-6.5H71v8.4H69.2z"/>
	<path class="st1" d="M79.2,74.2c-0.7,0-1.3-0.1-1.8-0.3c-0.5-0.2-1-0.5-1.4-0.9c-0.4-0.4-0.7-0.9-1-1.4s-0.3-1.1-0.3-1.7
		c0-0.6,0.1-1.2,0.4-1.7c0.2-0.5,0.6-1,1-1.4c0.4-0.4,0.9-0.7,1.5-0.9c0.6-0.2,1.2-0.3,1.8-0.3c0.8,0,1.5,0.1,2.1,0.4
		c0.6,0.3,1.1,0.6,1.5,1.1l-1.6,1.6c-0.3-0.3-0.6-0.6-0.9-0.8c-0.3-0.2-0.7-0.2-1.1-0.2c-0.4,0-0.8,0.1-1.1,0.3
		c-0.3,0.2-0.6,0.4-0.8,0.8c-0.2,0.3-0.3,0.7-0.3,1.2s0.1,0.9,0.3,1.2c0.2,0.3,0.4,0.6,0.8,0.8c0.3,0.2,0.7,0.3,1.2,0.3
		c0.4,0,0.8-0.1,1.1-0.2c0.3-0.2,0.5-0.4,0.7-0.7c0.2-0.3,0.2-0.7,0.2-1.1l1.6,1L78.9,71v-1.9h4.6v0.4c0,1-0.2,1.9-0.6,2.6
		c-0.4,0.7-0.9,1.2-1.5,1.6C80.9,74,80.1,74.2,79.2,74.2z"/>
	<path class="st1" d="M87.2,74.1v-8.4h2.4v8.4H87.2z M92.2,74.1v-8.4h2.4v8.4H92.2z M88.5,70.8v-2h4.7v2H88.5z"/>
	<path class="st1" d="M98,74.1l3.2-8.4h2.4l3.2,8.4h-2.4L102,67h0.8l-2.4,7.1H98z M100.1,72.7v-1.8h4.7v1.8H100.1z"/>
	<path class="st1" d="M110.2,74.1v-8.4h1.7l3.1,4.6h-0.7l3.1-4.6h1.7v8.4h-2.3v-4.5l0.3,0.1l-1.7,2.4h-1.5l-1.7-2.4l0.3-0.1v4.5
		H110.2z"/>
	<path class="st1" d="M128,74.1v-8.4h2.4v8.4H128z M129.9,71.1v-2h4.1v2H129.9z M129.9,67.7v-2h4.3v2H129.9z"/>
	<path class="st1" d="M136.6,74.1l3.2-8.4h2.4l3.2,8.4h-2.4l-2.3-7.1h0.8l-2.4,7.1H136.6z M138.7,72.7v-1.8h4.7v1.8H138.7z"/>
	<path class="st1" d="M151.3,74.2c-0.7,0-1.3-0.1-1.9-0.3c-0.5-0.2-1-0.5-1.5-1l1.5-1.5c0.3,0.3,0.6,0.5,1,0.7
		c0.3,0.1,0.7,0.2,1.1,0.2c0.3,0,0.6,0,0.7-0.1c0.2-0.1,0.2-0.2,0.2-0.4c0-0.2-0.1-0.3-0.2-0.4c-0.1-0.1-0.3-0.2-0.6-0.3
		c-0.2-0.1-0.5-0.2-0.8-0.3c-0.3-0.1-0.5-0.2-0.8-0.3c-0.3-0.1-0.5-0.3-0.8-0.5c-0.2-0.2-0.4-0.4-0.6-0.7c-0.1-0.3-0.2-0.6-0.2-1.1
		c0-0.5,0.1-1,0.4-1.4c0.3-0.4,0.6-0.7,1.1-0.9c0.5-0.2,1-0.3,1.7-0.3c0.6,0,1.2,0.1,1.7,0.3c0.5,0.2,1,0.5,1.3,0.8l-1.5,1.5
		c-0.3-0.3-0.5-0.4-0.8-0.6c-0.3-0.1-0.5-0.2-0.8-0.2c-0.2,0-0.4,0-0.6,0.1c-0.1,0.1-0.2,0.2-0.2,0.4c0,0.2,0.1,0.3,0.2,0.4
		c0.1,0.1,0.3,0.2,0.6,0.3c0.2,0.1,0.5,0.2,0.8,0.3c0.3,0.1,0.6,0.2,0.8,0.3c0.3,0.1,0.5,0.3,0.8,0.5c0.2,0.2,0.4,0.4,0.6,0.7
		c0.1,0.3,0.2,0.7,0.2,1.1c0,0.9-0.3,1.5-0.9,2C153.3,74,152.4,74.2,151.3,74.2z"/>
	<path class="st1" d="M160.2,74.1v-8.4h2.4v8.4H160.2z M157.7,67.7v-2h7.4v2H157.7z"/>
	<path class="st1" d="M168.7,74.1v-8.4h2.4v8.4H168.7z M170.6,74.1v-2h4.5v2H170.6z M170.6,70.8v-1.9h4.1v1.9H170.6z M170.6,67.7v-2
		h4.4v2H170.6z"/>
	<path class="st1" d="M178.9,74.1v-8.4h1.6l0.7,1.8v6.6H178.9z M184.7,74.1l-4.9-6.1l0.7-2.3l4.9,6.1L184.7,74.1z M184.7,74.1
		l-0.6-1.9v-6.5h2.4v8.4H184.7z"/>
	<path class="st1" d="M190.5,74.1v-8.4h2.4v8.4H190.5z M192.4,74.1v-2h4.5v2H192.4z M192.4,70.8v-1.9h4.1v1.9H192.4z M192.4,67.7v-2
		h4.4v2H192.4z"/>
	<path class="st1" d="M202.6,70.7v-1.6h1.4c0.3,0,0.6-0.1,0.7-0.2c0.2-0.2,0.3-0.4,0.3-0.6c0-0.3-0.1-0.5-0.3-0.6
		c-0.2-0.2-0.4-0.2-0.7-0.2h-1.4v-1.7h1.8c0.6,0,1.1,0.1,1.5,0.3c0.4,0.2,0.8,0.5,1,0.9c0.3,0.4,0.4,0.8,0.4,1.3s-0.1,0.9-0.4,1.3
		c-0.3,0.4-0.6,0.7-1.1,0.9c-0.5,0.2-1,0.3-1.6,0.3H202.6z M200.7,74.1v-8.4h2.4v8.4H200.7z M205.2,74.1l-2.3-3.6l2.1-0.5l2.8,4
		H205.2z"/>
	<path class="st1" d="M220.3,74.2c-0.6,0-1.2-0.1-1.8-0.3c-0.5-0.2-1-0.5-1.4-0.9c-0.4-0.4-0.7-0.9-1-1.4c-0.2-0.5-0.3-1.1-0.3-1.7
		c0-0.6,0.1-1.2,0.3-1.7c0.2-0.5,0.6-1,1-1.4c0.4-0.4,0.9-0.7,1.4-0.9c0.5-0.2,1.1-0.3,1.8-0.3c0.7,0,1.2,0.1,1.8,0.3
		c0.5,0.2,1,0.5,1.4,0.8l-1.6,1.6c-0.2-0.2-0.4-0.4-0.7-0.5c-0.3-0.1-0.6-0.2-0.9-0.2c-0.3,0-0.6,0.1-0.9,0.2
		c-0.3,0.1-0.5,0.3-0.7,0.4c-0.2,0.2-0.3,0.4-0.4,0.7c-0.1,0.3-0.2,0.6-0.2,0.9c0,0.4,0.1,0.7,0.2,1c0.1,0.3,0.3,0.5,0.4,0.7
		c0.2,0.2,0.4,0.3,0.7,0.5c0.3,0.1,0.6,0.2,0.9,0.2c0.4,0,0.7-0.1,0.9-0.2c0.3-0.1,0.5-0.3,0.7-0.5l1.6,1.6
		c-0.4,0.4-0.9,0.6-1.4,0.8C221.6,74.1,221,74.2,220.3,74.2z"/>
	<path class="st1" d="M230.9,74.2c-0.7,0-1.3-0.1-1.8-0.3c-0.5-0.2-1-0.5-1.4-0.9c-0.4-0.4-0.7-0.9-1-1.4c-0.2-0.5-0.3-1.1-0.3-1.7
		c0-0.6,0.1-1.2,0.3-1.7c0.2-0.5,0.5-1,1-1.4c0.4-0.4,0.9-0.7,1.4-0.9c0.6-0.2,1.2-0.3,1.8-0.3s1.3,0.1,1.8,0.3
		c0.6,0.2,1,0.5,1.4,0.9c0.4,0.4,0.7,0.9,0.9,1.4c0.2,0.5,0.3,1.1,0.3,1.7c0,0.6-0.1,1.2-0.3,1.7c-0.2,0.5-0.5,1-0.9,1.4
		c-0.4,0.4-0.9,0.7-1.4,0.9C232.1,74.1,231.5,74.2,230.9,74.2z M230.8,72.2c0.4,0,0.8-0.1,1.1-0.3c0.3-0.2,0.6-0.5,0.7-0.8
		c0.2-0.3,0.3-0.7,0.3-1.2c0-0.3-0.1-0.7-0.2-0.9c-0.1-0.3-0.2-0.5-0.4-0.7c-0.2-0.2-0.4-0.4-0.7-0.5c-0.3-0.1-0.6-0.2-0.9-0.2
		c-0.4,0-0.8,0.1-1.1,0.3c-0.3,0.2-0.6,0.4-0.7,0.8c-0.2,0.3-0.3,0.7-0.3,1.2c0,0.4,0,0.7,0.1,1c0.1,0.3,0.2,0.5,0.4,0.7
		c0.2,0.2,0.4,0.3,0.7,0.5C230.2,72.1,230.5,72.2,230.8,72.2z"/>
	<path class="st1" d="M239,74.1v-8.4h1.7l3.1,4.6h-0.7l3.1-4.6h1.7v8.4h-2.3v-4.5l0.3,0.1l-1.7,2.4h-1.5l-1.7-2.4l0.3-0.1v4.5H239z"
		/>
	<path class="st1" d="M253.9,71.1v-1.7h1.5c0.2,0,0.3,0,0.5-0.1c0.2-0.1,0.3-0.2,0.4-0.3c0.1-0.2,0.1-0.3,0.1-0.6
		c0-0.2,0-0.4-0.1-0.6c-0.1-0.2-0.2-0.3-0.4-0.3c-0.1-0.1-0.3-0.1-0.5-0.1h-1.5v-1.7h2c0.5,0,1,0.1,1.5,0.3c0.4,0.2,0.8,0.5,1,0.9
		c0.3,0.4,0.4,0.9,0.4,1.5c0,0.6-0.1,1.1-0.4,1.5c-0.3,0.4-0.6,0.7-1,0.9c-0.4,0.2-0.9,0.3-1.5,0.3H253.9z M252,74.1v-8.4h2.4v8.4
		H252z"/>
	<path class="st1" d="M261.2,74.1l3.2-8.4h2.4l3.2,8.4h-2.4l-2.3-7.1h0.8l-2.4,7.1H261.2z M263.3,72.7v-1.8h4.7v1.8H263.3z"/>
	<path class="st1" d="M273.3,74.1v-8.4h1.6l0.7,1.8v6.6H273.3z M279.1,74.1l-4.9-6.1l0.7-2.3l4.9,6.1L279.1,74.1z M279.1,74.1
		l-0.6-1.9v-6.5h2.4v8.4H279.1z"/>
	<path class="st1" d="M287.5,71.2l-3.2-5.5h2.7l2.4,4.5h-2l2.4-4.5h2.6l-3.2,5.5H287.5z M287.2,74.1v-3.7h2.4v3.7H287.2z"/>
</g>
<g>
	<path class="st1" d="M0,74.1l3.2-8.4h2.4l3.2,8.4H6.3L4,67h0.8l-2.4,7.1H0z M2.1,72.7v-1.8h4.7v1.8H2.1z"/>
	<path class="st1" d="M18.6,74.1v-1.7h1.5c0.3,0,0.5-0.1,0.7-0.2c0.2-0.2,0.3-0.4,0.3-0.7c0-0.2,0-0.3-0.1-0.5
		c-0.1-0.1-0.2-0.2-0.3-0.3c-0.1-0.1-0.3-0.1-0.5-0.1h-1.5v-1.6H20c0.3,0,0.5-0.1,0.6-0.2c0.2-0.1,0.2-0.3,0.2-0.6
		c0-0.3-0.1-0.5-0.2-0.6c-0.2-0.1-0.4-0.2-0.6-0.2h-1.4v-1.7h2.1c0.5,0,1,0.1,1.3,0.3c0.4,0.2,0.7,0.5,0.9,0.8
		c0.2,0.3,0.3,0.7,0.3,1.1c0,0.6-0.2,1.1-0.6,1.5c-0.4,0.4-1,0.6-1.9,0.6l0-0.8c0.9,0.1,1.6,0.3,2,0.7c0.5,0.4,0.7,1,0.7,1.7
		c0,0.5-0.1,0.9-0.4,1.3c-0.2,0.4-0.6,0.7-1,0.9c-0.4,0.2-0.9,0.3-1.5,0.3H18.6z M16.7,74.1v-8.4H19v8.4H16.7z"/>
	<path class="st1" d="M27.1,74.1v-8.4h2.4v8.4H27.1z"/>
	<path class="st1" d="M35.5,70.7v-1.6h1.4c0.3,0,0.6-0.1,0.7-0.2c0.2-0.2,0.3-0.4,0.3-0.6c0-0.3-0.1-0.5-0.3-0.6
		c-0.2-0.2-0.4-0.2-0.7-0.2h-1.4v-1.7h1.8c0.6,0,1.1,0.1,1.5,0.3c0.4,0.2,0.8,0.5,1,0.9c0.3,0.4,0.4,0.8,0.4,1.3s-0.1,0.9-0.4,1.3
		c-0.3,0.4-0.6,0.7-1.1,0.9s-1,0.3-1.6,0.3H35.5z M33.6,74.1v-8.4h2.4v8.4H33.6z M38.1,74.1l-2.3-3.6l2.1-0.5l2.8,4H38.1z"/>
	<path class="st1" d="M44.1,74.1v-8.4h1.7l3.1,4.6h-0.7l3.1-4.6H53v8.4h-2.3v-4.5l0.3,0.1l-1.7,2.4h-1.5l-1.7-2.4l0.3-0.1v4.5H44.1z
		"/>
	<path class="st1" d="M57,74.1v-8.4h2.4v8.4H57z"/>
	<path class="st1" d="M63.5,74.1v-8.4h1.6l0.7,1.8v6.6H63.5z M69.2,74.1L64.4,68l0.7-2.3l4.9,6.1L69.2,74.1z M69.2,74.1l-0.6-1.9
		v-6.5H71v8.4H69.2z"/>
	<path class="st1" d="M79.2,74.2c-0.7,0-1.3-0.1-1.8-0.3c-0.5-0.2-1-0.5-1.4-0.9c-0.4-0.4-0.7-0.9-1-1.4s-0.3-1.1-0.3-1.7
		c0-0.6,0.1-1.2,0.4-1.7c0.2-0.5,0.6-1,1-1.4c0.4-0.4,0.9-0.7,1.5-0.9c0.6-0.2,1.2-0.3,1.8-0.3c0.8,0,1.5,0.1,2.1,0.4
		c0.6,0.3,1.1,0.6,1.5,1.1l-1.6,1.6c-0.3-0.3-0.6-0.6-0.9-0.8c-0.3-0.2-0.7-0.2-1.1-0.2c-0.4,0-0.8,0.1-1.1,0.3
		c-0.3,0.2-0.6,0.4-0.8,0.8c-0.2,0.3-0.3,0.7-0.3,1.2s0.1,0.9,0.3,1.2c0.2,0.3,0.4,0.6,0.8,0.8c0.3,0.2,0.7,0.3,1.2,0.3
		c0.4,0,0.8-0.1,1.1-0.2c0.3-0.2,0.5-0.4,0.7-0.7c0.2-0.3,0.2-0.7,0.2-1.1l1.6,1L78.9,71v-1.9h4.6v0.4c0,1-0.2,1.9-0.6,2.6
		c-0.4,0.7-0.9,1.2-1.5,1.6C80.9,74,80.1,74.2,79.2,74.2z"/>
	<path class="st1" d="M87.2,74.1v-8.4h2.4v8.4H87.2z M92.2,74.1v-8.4h2.4v8.4H92.2z M88.5,70.8v-2h4.7v2H88.5z"/>
	<path class="st1" d="M98,74.1l3.2-8.4h2.4l3.2,8.4h-2.4L102,67h0.8l-2.4,7.1H98z M100.1,72.7v-1.8h4.7v1.8H100.1z"/>
	<path class="st1" d="M110.2,74.1v-8.4h1.7l3.1,4.6h-0.7l3.1-4.6h1.7v8.4h-2.3v-4.5l0.3,0.1l-1.7,2.4h-1.5l-1.7-2.4l0.3-0.1v4.5
		H110.2z"/>
	<path class="st1" d="M128,74.1v-8.4h2.4v8.4H128z M129.9,71.1v-2h4.1v2H129.9z M129.9,67.7v-2h4.3v2H129.9z"/>
	<path class="st1" d="M136.6,74.1l3.2-8.4h2.4l3.2,8.4h-2.4l-2.3-7.1h0.8l-2.4,7.1H136.6z M138.7,72.7v-1.8h4.7v1.8H138.7z"/>
	<path class="st1" d="M151.3,74.2c-0.7,0-1.3-0.1-1.9-0.3c-0.5-0.2-1-0.5-1.5-1l1.5-1.5c0.3,0.3,0.6,0.5,1,0.7
		c0.3,0.1,0.7,0.2,1.1,0.2c0.3,0,0.6,0,0.7-0.1c0.2-0.1,0.2-0.2,0.2-0.4c0-0.2-0.1-0.3-0.2-0.4c-0.1-0.1-0.3-0.2-0.6-0.3
		c-0.2-0.1-0.5-0.2-0.8-0.3c-0.3-0.1-0.5-0.2-0.8-0.3c-0.3-0.1-0.5-0.3-0.8-0.5c-0.2-0.2-0.4-0.4-0.6-0.7c-0.1-0.3-0.2-0.6-0.2-1.1
		c0-0.5,0.1-1,0.4-1.4c0.3-0.4,0.6-0.7,1.1-0.9c0.5-0.2,1-0.3,1.7-0.3c0.6,0,1.2,0.1,1.7,0.3c0.5,0.2,1,0.5,1.3,0.8l-1.5,1.5
		c-0.3-0.3-0.5-0.4-0.8-0.6c-0.3-0.1-0.5-0.2-0.8-0.2c-0.2,0-0.4,0-0.6,0.1c-0.1,0.1-0.2,0.2-0.2,0.4c0,0.2,0.1,0.3,0.2,0.4
		c0.1,0.1,0.3,0.2,0.6,0.3c0.2,0.1,0.5,0.2,0.8,0.3c0.3,0.1,0.6,0.2,0.8,0.3c0.3,0.1,0.5,0.3,0.8,0.5c0.2,0.2,0.4,0.4,0.6,0.7
		c0.1,0.3,0.2,0.7,0.2,1.1c0,0.9-0.3,1.5-0.9,2C153.3,74,152.4,74.2,151.3,74.2z"/>
	<path class="st1" d="M160.2,74.1v-8.4h2.4v8.4H160.2z M157.7,67.7v-2h7.4v2H157.7z"/>
	<path class="st1" d="M168.7,74.1v-8.4h2.4v8.4H168.7z M170.6,74.1v-2h4.5v2H170.6z M170.6,70.8v-1.9h4.1v1.9H170.6z M170.6,67.7v-2
		h4.4v2H170.6z"/>
	<path class="st1" d="M178.9,74.1v-8.4h1.6l0.7,1.8v6.6H178.9z M184.7,74.1l-4.9-6.1l0.7-2.3l4.9,6.1L184.7,74.1z M184.7,74.1
		l-0.6-1.9v-6.5h2.4v8.4H184.7z"/>
	<path class="st1" d="M190.5,74.1v-8.4h2.4v8.4H190.5z M192.4,74.1v-2h4.5v2H192.4z M192.4,70.8v-1.9h4.1v1.9H192.4z M192.4,67.7v-2
		h4.4v2H192.4z"/>
	<path class="st1" d="M202.6,70.7v-1.6h1.4c0.3,0,0.6-0.1,0.7-0.2c0.2-0.2,0.3-0.4,0.3-0.6c0-0.3-0.1-0.5-0.3-0.6
		c-0.2-0.2-0.4-0.2-0.7-0.2h-1.4v-1.7h1.8c0.6,0,1.1,0.1,1.5,0.3c0.4,0.2,0.8,0.5,1,0.9c0.3,0.4,0.4,0.8,0.4,1.3s-0.1,0.9-0.4,1.3
		c-0.3,0.4-0.6,0.7-1.1,0.9c-0.5,0.2-1,0.3-1.6,0.3H202.6z M200.7,74.1v-8.4h2.4v8.4H200.7z M205.2,74.1l-2.3-3.6l2.1-0.5l2.8,4
		H205.2z"/>
	<path class="st1" d="M220.3,74.2c-0.6,0-1.2-0.1-1.8-0.3c-0.5-0.2-1-0.5-1.4-0.9c-0.4-0.4-0.7-0.9-1-1.4c-0.2-0.5-0.3-1.1-0.3-1.7
		c0-0.6,0.1-1.2,0.3-1.7c0.2-0.5,0.6-1,1-1.4c0.4-0.4,0.9-0.7,1.4-0.9c0.5-0.2,1.1-0.3,1.8-0.3c0.7,0,1.2,0.1,1.8,0.3
		c0.5,0.2,1,0.5,1.4,0.8l-1.6,1.6c-0.2-0.2-0.4-0.4-0.7-0.5c-0.3-0.1-0.6-0.2-0.9-0.2c-0.3,0-0.6,0.1-0.9,0.2
		c-0.3,0.1-0.5,0.3-0.7,0.4c-0.2,0.2-0.3,0.4-0.4,0.7c-0.1,0.3-0.2,0.6-0.2,0.9c0,0.4,0.1,0.7,0.2,1c0.1,0.3,0.3,0.5,0.4,0.7
		c0.2,0.2,0.4,0.3,0.7,0.5c0.3,0.1,0.6,0.2,0.9,0.2c0.4,0,0.7-0.1,0.9-0.2c0.3-0.1,0.5-0.3,0.7-0.5l1.6,1.6
		c-0.4,0.4-0.9,0.6-1.4,0.8C221.6,74.1,221,74.2,220.3,74.2z"/>
	<path class="st1" d="M230.9,74.2c-0.7,0-1.3-0.1-1.8-0.3c-0.5-0.2-1-0.5-1.4-0.9c-0.4-0.4-0.7-0.9-1-1.4c-0.2-0.5-0.3-1.1-0.3-1.7
		c0-0.6,0.1-1.2,0.3-1.7c0.2-0.5,0.5-1,1-1.4c0.4-0.4,0.9-0.7,1.4-0.9c0.6-0.2,1.2-0.3,1.8-0.3s1.3,0.1,1.8,0.3
		c0.6,0.2,1,0.5,1.4,0.9c0.4,0.4,0.7,0.9,0.9,1.4c0.2,0.5,0.3,1.1,0.3,1.7c0,0.6-0.1,1.2-0.3,1.7c-0.2,0.5-0.5,1-0.9,1.4
		c-0.4,0.4-0.9,0.7-1.4,0.9C232.1,74.1,231.5,74.2,230.9,74.2z M230.8,72.2c0.4,0,0.8-0.1,1.1-0.3c0.3-0.2,0.6-0.5,0.7-0.8
		c0.2-0.3,0.3-0.7,0.3-1.2c0-0.3-0.1-0.7-0.2-0.9c-0.1-0.3-0.2-0.5-0.4-0.7c-0.2-0.2-0.4-0.4-0.7-0.5c-0.3-0.1-0.6-0.2-0.9-0.2
		c-0.4,0-0.8,0.1-1.1,0.3c-0.3,0.2-0.6,0.4-0.7,0.8c-0.2,0.3-0.3,0.7-0.3,1.2c0,0.4,0,0.7,0.1,1c0.1,0.3,0.2,0.5,0.4,0.7
		c0.2,0.2,0.4,0.3,0.7,0.5C230.2,72.1,230.5,72.2,230.8,72.2z"/>
	<path class="st1" d="M239,74.1v-8.4h1.7l3.1,4.6h-0.7l3.1-4.6h1.7v8.4h-2.3v-4.5l0.3,0.1l-1.7,2.4h-1.5l-1.7-2.4l0.3-0.1v4.5H239z"
		/>
	<path class="st1" d="M253.9,71.1v-1.7h1.5c0.2,0,0.3,0,0.5-0.1c0.2-0.1,0.3-0.2,0.4-0.3c0.1-0.2,0.1-0.3,0.1-0.6
		c0-0.2,0-0.4-0.1-0.6c-0.1-0.2-0.2-0.3-0.4-0.3c-0.1-0.1-0.3-0.1-0.5-0.1h-1.5v-1.7h2c0.5,0,1,0.1,1.5,0.3c0.4,0.2,0.8,0.5,1,0.9
		c0.3,0.4,0.4,0.9,0.4,1.5c0,0.6-0.1,1.1-0.4,1.5c-0.3,0.4-0.6,0.7-1,0.9c-0.4,0.2-0.9,0.3-1.5,0.3H253.9z M252,74.1v-8.4h2.4v8.4
		H252z"/>
	<path class="st1" d="M261.2,74.1l3.2-8.4h2.4l3.2,8.4h-2.4l-2.3-7.1h0.8l-2.4,7.1H261.2z M263.3,72.7v-1.8h4.7v1.8H263.3z"/>
	<path class="st1" d="M273.3,74.1v-8.4h1.6l0.7,1.8v6.6H273.3z M279.1,74.1l-4.9-6.1l0.7-2.3l4.9,6.1L279.1,74.1z M279.1,74.1
		l-0.6-1.9v-6.5h2.4v8.4H279.1z"/>
	<path class="st1" d="M287.5,71.2l-3.2-5.5h2.7l2.4,4.5h-2l2.4-4.5h2.6l-3.2,5.5H287.5z M287.2,74.1v-3.7h2.4v3.7H287.2z"/>
</g>
<g>
	<path class="st1" d="M0,74.1l3.2-8.4h2.4l3.2,8.4H6.3L4,67h0.8l-2.4,7.1H0z M2.1,72.7v-1.8h4.7v1.8H2.1z"/>
	<path class="st1" d="M18.6,74.1v-1.7h1.5c0.3,0,0.5-0.1,0.7-0.2c0.2-0.2,0.3-0.4,0.3-0.7c0-0.2,0-0.3-0.1-0.5
		c-0.1-0.1-0.2-0.2-0.3-0.3c-0.1-0.1-0.3-0.1-0.5-0.1h-1.5v-1.6H20c0.3,0,0.5-0.1,0.6-0.2c0.2-0.1,0.2-0.3,0.2-0.6
		c0-0.3-0.1-0.5-0.2-0.6c-0.2-0.1-0.4-0.2-0.6-0.2h-1.4v-1.7h2.1c0.5,0,1,0.1,1.3,0.3c0.4,0.2,0.7,0.5,0.9,0.8
		c0.2,0.3,0.3,0.7,0.3,1.1c0,0.6-0.2,1.1-0.6,1.5c-0.4,0.4-1,0.6-1.9,0.6l0-0.8c0.9,0.1,1.6,0.3,2,0.7c0.5,0.4,0.7,1,0.7,1.7
		c0,0.5-0.1,0.9-0.4,1.3c-0.2,0.4-0.6,0.7-1,0.9c-0.4,0.2-0.9,0.3-1.5,0.3H18.6z M16.7,74.1v-8.4H19v8.4H16.7z"/>
	<path class="st1" d="M27.1,74.1v-8.4h2.4v8.4H27.1z"/>
	<path class="st1" d="M35.5,70.7v-1.6h1.4c0.3,0,0.6-0.1,0.7-0.2c0.2-0.2,0.3-0.4,0.3-0.6c0-0.3-0.1-0.5-0.3-0.6
		c-0.2-0.2-0.4-0.2-0.7-0.2h-1.4v-1.7h1.8c0.6,0,1.1,0.1,1.5,0.3c0.4,0.2,0.8,0.5,1,0.9c0.3,0.4,0.4,0.8,0.4,1.3s-0.1,0.9-0.4,1.3
		c-0.3,0.4-0.6,0.7-1.1,0.9s-1,0.3-1.6,0.3H35.5z M33.6,74.1v-8.4h2.4v8.4H33.6z M38.1,74.1l-2.3-3.6l2.1-0.5l2.8,4H38.1z"/>
	<path class="st1" d="M44.1,74.1v-8.4h1.7l3.1,4.6h-0.7l3.1-4.6H53v8.4h-2.3v-4.5l0.3,0.1l-1.7,2.4h-1.5l-1.7-2.4l0.3-0.1v4.5H44.1z
		"/>
	<path class="st1" d="M57,74.1v-8.4h2.4v8.4H57z"/>
	<path class="st1" d="M63.5,74.1v-8.4h1.6l0.7,1.8v6.6H63.5z M69.2,74.1L64.4,68l0.7-2.3l4.9,6.1L69.2,74.1z M69.2,74.1l-0.6-1.9
		v-6.5H71v8.4H69.2z"/>
	<path class="st1" d="M79.2,74.2c-0.7,0-1.3-0.1-1.8-0.3c-0.5-0.2-1-0.5-1.4-0.9c-0.4-0.4-0.7-0.9-1-1.4s-0.3-1.1-0.3-1.7
		c0-0.6,0.1-1.2,0.4-1.7c0.2-0.5,0.6-1,1-1.4c0.4-0.4,0.9-0.7,1.5-0.9c0.6-0.2,1.2-0.3,1.8-0.3c0.8,0,1.5,0.1,2.1,0.4
		c0.6,0.3,1.1,0.6,1.5,1.1l-1.6,1.6c-0.3-0.3-0.6-0.6-0.9-0.8c-0.3-0.2-0.7-0.2-1.1-0.2c-0.4,0-0.8,0.1-1.1,0.3
		c-0.3,0.2-0.6,0.4-0.8,0.8c-0.2,0.3-0.3,0.7-0.3,1.2s0.1,0.9,0.3,1.2c0.2,0.3,0.4,0.6,0.8,0.8c0.3,0.2,0.7,0.3,1.2,0.3
		c0.4,0,0.8-0.1,1.1-0.2c0.3-0.2,0.5-0.4,0.7-0.7c0.2-0.3,0.2-0.7,0.2-1.1l1.6,1L78.9,71v-1.9h4.6v0.4c0,1-0.2,1.9-0.6,2.6
		c-0.4,0.7-0.9,1.2-1.5,1.6C80.9,74,80.1,74.2,79.2,74.2z"/>
	<path class="st1" d="M87.2,74.1v-8.4h2.4v8.4H87.2z M92.2,74.1v-8.4h2.4v8.4H92.2z M88.5,70.8v-2h4.7v2H88.5z"/>
	<path class="st1" d="M98,74.1l3.2-8.4h2.4l3.2,8.4h-2.4L102,67h0.8l-2.4,7.1H98z M100.1,72.7v-1.8h4.7v1.8H100.1z"/>
	<path class="st1" d="M110.2,74.1v-8.4h1.7l3.1,4.6h-0.7l3.1-4.6h1.7v8.4h-2.3v-4.5l0.3,0.1l-1.7,2.4h-1.5l-1.7-2.4l0.3-0.1v4.5
		H110.2z"/>
	<path class="st1" d="M128,74.1v-8.4h2.4v8.4H128z M129.9,71.1v-2h4.1v2H129.9z M129.9,67.7v-2h4.3v2H129.9z"/>
	<path class="st1" d="M136.6,74.1l3.2-8.4h2.4l3.2,8.4h-2.4l-2.3-7.1h0.8l-2.4,7.1H136.6z M138.7,72.7v-1.8h4.7v1.8H138.7z"/>
	<path class="st1" d="M151.3,74.2c-0.7,0-1.3-0.1-1.9-0.3c-0.5-0.2-1-0.5-1.5-1l1.5-1.5c0.3,0.3,0.6,0.5,1,0.7
		c0.3,0.1,0.7,0.2,1.1,0.2c0.3,0,0.6,0,0.7-0.1c0.2-0.1,0.2-0.2,0.2-0.4c0-0.2-0.1-0.3-0.2-0.4c-0.1-0.1-0.3-0.2-0.6-0.3
		c-0.2-0.1-0.5-0.2-0.8-0.3c-0.3-0.1-0.5-0.2-0.8-0.3c-0.3-0.1-0.5-0.3-0.8-0.5c-0.2-0.2-0.4-0.4-0.6-0.7c-0.1-0.3-0.2-0.6-0.2-1.1
		c0-0.5,0.1-1,0.4-1.4c0.3-0.4,0.6-0.7,1.1-0.9c0.5-0.2,1-0.3,1.7-0.3c0.6,0,1.2,0.1,1.7,0.3c0.5,0.2,1,0.5,1.3,0.8l-1.5,1.5
		c-0.3-0.3-0.5-0.4-0.8-0.6c-0.3-0.1-0.5-0.2-0.8-0.2c-0.2,0-0.4,0-0.6,0.1c-0.1,0.1-0.2,0.2-0.2,0.4c0,0.2,0.1,0.3,0.2,0.4
		c0.1,0.1,0.3,0.2,0.6,0.3c0.2,0.1,0.5,0.2,0.8,0.3c0.3,0.1,0.6,0.2,0.8,0.3c0.3,0.1,0.5,0.3,0.8,0.5c0.2,0.2,0.4,0.4,0.6,0.7
		c0.1,0.3,0.2,0.7,0.2,1.1c0,0.9-0.3,1.5-0.9,2C153.3,74,152.4,74.2,151.3,74.2z"/>
	<path class="st1" d="M160.2,74.1v-8.4h2.4v8.4H160.2z M157.7,67.7v-2h7.4v2H157.7z"/>
	<path class="st1" d="M168.7,74.1v-8.4h2.4v8.4H168.7z M170.6,74.1v-2h4.5v2H170.6z M170.6,70.8v-1.9h4.1v1.9H170.6z M170.6,67.7v-2
		h4.4v2H170.6z"/>
	<path class="st1" d="M178.9,74.1v-8.4h1.6l0.7,1.8v6.6H178.9z M184.7,74.1l-4.9-6.1l0.7-2.3l4.9,6.1L184.7,74.1z M184.7,74.1
		l-0.6-1.9v-6.5h2.4v8.4H184.7z"/>
	<path class="st1" d="M190.5,74.1v-8.4h2.4v8.4H190.5z M192.4,74.1v-2h4.5v2H192.4z M192.4,70.8v-1.9h4.1v1.9H192.4z M192.4,67.7v-2
		h4.4v2H192.4z"/>
	<path class="st1" d="M202.6,70.7v-1.6h1.4c0.3,0,0.6-0.1,0.7-0.2c0.2-0.2,0.3-0.4,0.3-0.6c0-0.3-0.1-0.5-0.3-0.6
		c-0.2-0.2-0.4-0.2-0.7-0.2h-1.4v-1.7h1.8c0.6,0,1.1,0.1,1.5,0.3c0.4,0.2,0.8,0.5,1,0.9c0.3,0.4,0.4,0.8,0.4,1.3s-0.1,0.9-0.4,1.3
		c-0.3,0.4-0.6,0.7-1.1,0.9c-0.5,0.2-1,0.3-1.6,0.3H202.6z M200.7,74.1v-8.4h2.4v8.4H200.7z M205.2,74.1l-2.3-3.6l2.1-0.5l2.8,4
		H205.2z"/>
	<path class="st1" d="M220.3,74.2c-0.6,0-1.2-0.1-1.8-0.3c-0.5-0.2-1-0.5-1.4-0.9c-0.4-0.4-0.7-0.9-1-1.4c-0.2-0.5-0.3-1.1-0.3-1.7
		c0-0.6,0.1-1.2,0.3-1.7c0.2-0.5,0.6-1,1-1.4c0.4-0.4,0.9-0.7,1.4-0.9c0.5-0.2,1.1-0.3,1.8-0.3c0.7,0,1.2,0.1,1.8,0.3
		c0.5,0.2,1,0.5,1.4,0.8l-1.6,1.6c-0.2-0.2-0.4-0.4-0.7-0.5c-0.3-0.1-0.6-0.2-0.9-0.2c-0.3,0-0.6,0.1-0.9,0.2
		c-0.3,0.1-0.5,0.3-0.7,0.4c-0.2,0.2-0.3,0.4-0.4,0.7c-0.1,0.3-0.2,0.6-0.2,0.9c0,0.4,0.1,0.7,0.2,1c0.1,0.3,0.3,0.5,0.4,0.7
		c0.2,0.2,0.4,0.3,0.7,0.5c0.3,0.1,0.6,0.2,0.9,0.2c0.4,0,0.7-0.1,0.9-0.2c0.3-0.1,0.5-0.3,0.7-0.5l1.6,1.6
		c-0.4,0.4-0.9,0.6-1.4,0.8C221.6,74.1,221,74.2,220.3,74.2z"/>
	<path class="st1" d="M230.9,74.2c-0.7,0-1.3-0.1-1.8-0.3c-0.5-0.2-1-0.5-1.4-0.9c-0.4-0.4-0.7-0.9-1-1.4c-0.2-0.5-0.3-1.1-0.3-1.7
		c0-0.6,0.1-1.2,0.3-1.7c0.2-0.5,0.5-1,1-1.4c0.4-0.4,0.9-0.7,1.4-0.9c0.6-0.2,1.2-0.3,1.8-0.3s1.3,0.1,1.8,0.3
		c0.6,0.2,1,0.5,1.4,0.9c0.4,0.4,0.7,0.9,0.9,1.4c0.2,0.5,0.3,1.1,0.3,1.7c0,0.6-0.1,1.2-0.3,1.7c-0.2,0.5-0.5,1-0.9,1.4
		c-0.4,0.4-0.9,0.7-1.4,0.9C232.1,74.1,231.5,74.2,230.9,74.2z M230.8,72.2c0.4,0,0.8-0.1,1.1-0.3c0.3-0.2,0.6-0.5,0.7-0.8
		c0.2-0.3,0.3-0.7,0.3-1.2c0-0.3-0.1-0.7-0.2-0.9c-0.1-0.3-0.2-0.5-0.4-0.7c-0.2-0.2-0.4-0.4-0.7-0.5c-0.3-0.1-0.6-0.2-0.9-0.2
		c-0.4,0-0.8,0.1-1.1,0.3c-0.3,0.2-0.6,0.4-0.7,0.8c-0.2,0.3-0.3,0.7-0.3,1.2c0,0.4,0,0.7,0.1,1c0.1,0.3,0.2,0.5,0.4,0.7
		c0.2,0.2,0.4,0.3,0.7,0.5C230.2,72.1,230.5,72.2,230.8,72.2z"/>
	<path class="st1" d="M239,74.1v-8.4h1.7l3.1,4.6h-0.7l3.1-4.6h1.7v8.4h-2.3v-4.5l0.3,0.1l-1.7,2.4h-1.5l-1.7-2.4l0.3-0.1v4.5H239z"
		/>
	<path class="st1" d="M253.9,71.1v-1.7h1.5c0.2,0,0.3,0,0.5-0.1c0.2-0.1,0.3-0.2,0.4-0.3c0.1-0.2,0.1-0.3,0.1-0.6
		c0-0.2,0-0.4-0.1-0.6c-0.1-0.2-0.2-0.3-0.4-0.3c-0.1-0.1-0.3-0.1-0.5-0.1h-1.5v-1.7h2c0.5,0,1,0.1,1.5,0.3c0.4,0.2,0.8,0.5,1,0.9
		c0.3,0.4,0.4,0.9,0.4,1.5c0,0.6-0.1,1.1-0.4,1.5c-0.3,0.4-0.6,0.7-1,0.9c-0.4,0.2-0.9,0.3-1.5,0.3H253.9z M252,74.1v-8.4h2.4v8.4
		H252z"/>
	<path class="st1" d="M261.2,74.1l3.2-8.4h2.4l3.2,8.4h-2.4l-2.3-7.1h0.8l-2.4,7.1H261.2z M263.3,72.7v-1.8h4.7v1.8H263.3z"/>
	<path class="st1" d="M273.3,74.1v-8.4h1.6l0.7,1.8v6.6H273.3z M279.1,74.1l-4.9-6.1l0.7-2.3l4.9,6.1L279.1,74.1z M279.1,74.1
		l-0.6-1.9v-6.5h2.4v8.4H279.1z"/>
	<path class="st1" d="M287.5,71.2l-3.2-5.5h2.7l2.4,4.5h-2l2.4-4.5h2.6l-3.2,5.5H287.5z M287.2,74.1v-3.7h2.4v3.7H287.2z"/>
</g>
<g>
	<path class="st1" d="M0,74.1l3.2-8.4h2.4l3.2,8.4H6.3L4,67h0.8l-2.4,7.1H0z M2.1,72.7v-1.8h4.7v1.8H2.1z"/>
	<path class="st1" d="M18.6,74.1v-1.7h1.5c0.3,0,0.5-0.1,0.7-0.2c0.2-0.2,0.3-0.4,0.3-0.7c0-0.2,0-0.3-0.1-0.5
		c-0.1-0.1-0.2-0.2-0.3-0.3c-0.1-0.1-0.3-0.1-0.5-0.1h-1.5v-1.6H20c0.3,0,0.5-0.1,0.6-0.2c0.2-0.1,0.2-0.3,0.2-0.6
		c0-0.3-0.1-0.5-0.2-0.6c-0.2-0.1-0.4-0.2-0.6-0.2h-1.4v-1.7h2.1c0.5,0,1,0.1,1.3,0.3c0.4,0.2,0.7,0.5,0.9,0.8
		c0.2,0.3,0.3,0.7,0.3,1.1c0,0.6-0.2,1.1-0.6,1.5c-0.4,0.4-1,0.6-1.9,0.6l0-0.8c0.9,0.1,1.6,0.3,2,0.7c0.5,0.4,0.7,1,0.7,1.7
		c0,0.5-0.1,0.9-0.4,1.3c-0.2,0.4-0.6,0.7-1,0.9c-0.4,0.2-0.9,0.3-1.5,0.3H18.6z M16.7,74.1v-8.4H19v8.4H16.7z"/>
	<path class="st1" d="M27.1,74.1v-8.4h2.4v8.4H27.1z"/>
	<path class="st1" d="M35.5,70.7v-1.6h1.4c0.3,0,0.6-0.1,0.7-0.2c0.2-0.2,0.3-0.4,0.3-0.6c0-0.3-0.1-0.5-0.3-0.6
		c-0.2-0.2-0.4-0.2-0.7-0.2h-1.4v-1.7h1.8c0.6,0,1.1,0.1,1.5,0.3c0.4,0.2,0.8,0.5,1,0.9c0.3,0.4,0.4,0.8,0.4,1.3s-0.1,0.9-0.4,1.3
		c-0.3,0.4-0.6,0.7-1.1,0.9s-1,0.3-1.6,0.3H35.5z M33.6,74.1v-8.4h2.4v8.4H33.6z M38.1,74.1l-2.3-3.6l2.1-0.5l2.8,4H38.1z"/>
	<path class="st1" d="M44.1,74.1v-8.4h1.7l3.1,4.6h-0.7l3.1-4.6H53v8.4h-2.3v-4.5l0.3,0.1l-1.7,2.4h-1.5l-1.7-2.4l0.3-0.1v4.5H44.1z
		"/>
	<path class="st1" d="M57,74.1v-8.4h2.4v8.4H57z"/>
	<path class="st1" d="M63.5,74.1v-8.4h1.6l0.7,1.8v6.6H63.5z M69.2,74.1L64.4,68l0.7-2.3l4.9,6.1L69.2,74.1z M69.2,74.1l-0.6-1.9
		v-6.5H71v8.4H69.2z"/>
	<path class="st1" d="M79.2,74.2c-0.7,0-1.3-0.1-1.8-0.3c-0.5-0.2-1-0.5-1.4-0.9c-0.4-0.4-0.7-0.9-1-1.4s-0.3-1.1-0.3-1.7
		c0-0.6,0.1-1.2,0.4-1.7c0.2-0.5,0.6-1,1-1.4c0.4-0.4,0.9-0.7,1.5-0.9c0.6-0.2,1.2-0.3,1.8-0.3c0.8,0,1.5,0.1,2.1,0.4
		c0.6,0.3,1.1,0.6,1.5,1.1l-1.6,1.6c-0.3-0.3-0.6-0.6-0.9-0.8c-0.3-0.2-0.7-0.2-1.1-0.2c-0.4,0-0.8,0.1-1.1,0.3
		c-0.3,0.2-0.6,0.4-0.8,0.8c-0.2,0.3-0.3,0.7-0.3,1.2s0.1,0.9,0.3,1.2c0.2,0.3,0.4,0.6,0.8,0.8c0.3,0.2,0.7,0.3,1.2,0.3
		c0.4,0,0.8-0.1,1.1-0.2c0.3-0.2,0.5-0.4,0.7-0.7c0.2-0.3,0.2-0.7,0.2-1.1l1.6,1L78.9,71v-1.9h4.6v0.4c0,1-0.2,1.9-0.6,2.6
		c-0.4,0.7-0.9,1.2-1.5,1.6C80.9,74,80.1,74.2,79.2,74.2z"/>
	<path class="st1" d="M87.2,74.1v-8.4h2.4v8.4H87.2z M92.2,74.1v-8.4h2.4v8.4H92.2z M88.5,70.8v-2h4.7v2H88.5z"/>
	<path class="st1" d="M98,74.1l3.2-8.4h2.4l3.2,8.4h-2.4L102,67h0.8l-2.4,7.1H98z M100.1,72.7v-1.8h4.7v1.8H100.1z"/>
	<path class="st1" d="M110.2,74.1v-8.4h1.7l3.1,4.6h-0.7l3.1-4.6h1.7v8.4h-2.3v-4.5l0.3,0.1l-1.7,2.4h-1.5l-1.7-2.4l0.3-0.1v4.5
		H110.2z"/>
	<path class="st1" d="M128,74.1v-8.4h2.4v8.4H128z M129.9,71.1v-2h4.1v2H129.9z M129.9,67.7v-2h4.3v2H129.9z"/>
	<path class="st1" d="M136.6,74.1l3.2-8.4h2.4l3.2,8.4h-2.4l-2.3-7.1h0.8l-2.4,7.1H136.6z M138.7,72.7v-1.8h4.7v1.8H138.7z"/>
	<path class="st1" d="M151.3,74.2c-0.7,0-1.3-0.1-1.9-0.3c-0.5-0.2-1-0.5-1.5-1l1.5-1.5c0.3,0.3,0.6,0.5,1,0.7
		c0.3,0.1,0.7,0.2,1.1,0.2c0.3,0,0.6,0,0.7-0.1c0.2-0.1,0.2-0.2,0.2-0.4c0-0.2-0.1-0.3-0.2-0.4c-0.1-0.1-0.3-0.2-0.6-0.3
		c-0.2-0.1-0.5-0.2-0.8-0.3c-0.3-0.1-0.5-0.2-0.8-0.3c-0.3-0.1-0.5-0.3-0.8-0.5c-0.2-0.2-0.4-0.4-0.6-0.7c-0.1-0.3-0.2-0.6-0.2-1.1
		c0-0.5,0.1-1,0.4-1.4c0.3-0.4,0.6-0.7,1.1-0.9c0.5-0.2,1-0.3,1.7-0.3c0.6,0,1.2,0.1,1.7,0.3c0.5,0.2,1,0.5,1.3,0.8l-1.5,1.5
		c-0.3-0.3-0.5-0.4-0.8-0.6c-0.3-0.1-0.5-0.2-0.8-0.2c-0.2,0-0.4,0-0.6,0.1c-0.1,0.1-0.2,0.2-0.2,0.4c0,0.2,0.1,0.3,0.2,0.4
		c0.1,0.1,0.3,0.2,0.6,0.3c0.2,0.1,0.5,0.2,0.8,0.3c0.3,0.1,0.6,0.2,0.8,0.3c0.3,0.1,0.5,0.3,0.8,0.5c0.2,0.2,0.4,0.4,0.6,0.7
		c0.1,0.3,0.2,0.7,0.2,1.1c0,0.9-0.3,1.5-0.9,2C153.3,74,152.4,74.2,151.3,74.2z"/>
	<path class="st1" d="M160.2,74.1v-8.4h2.4v8.4H160.2z M157.7,67.7v-2h7.4v2H157.7z"/>
	<path class="st1" d="M168.7,74.1v-8.4h2.4v8.4H168.7z M170.6,74.1v-2h4.5v2H170.6z M170.6,70.8v-1.9h4.1v1.9H170.6z M170.6,67.7v-2
		h4.4v2H170.6z"/>
	<path class="st1" d="M178.9,74.1v-8.4h1.6l0.7,1.8v6.6H178.9z M184.7,74.1l-4.9-6.1l0.7-2.3l4.9,6.1L184.7,74.1z M184.7,74.1
		l-0.6-1.9v-6.5h2.4v8.4H184.7z"/>
	<path class="st1" d="M190.5,74.1v-8.4h2.4v8.4H190.5z M192.4,74.1v-2h4.5v2H192.4z M192.4,70.8v-1.9h4.1v1.9H192.4z M192.4,67.7v-2
		h4.4v2H192.4z"/>
	<path class="st1" d="M202.6,70.7v-1.6h1.4c0.3,0,0.6-0.1,0.7-0.2c0.2-0.2,0.3-0.4,0.3-0.6c0-0.3-0.1-0.5-0.3-0.6
		c-0.2-0.2-0.4-0.2-0.7-0.2h-1.4v-1.7h1.8c0.6,0,1.1,0.1,1.5,0.3c0.4,0.2,0.8,0.5,1,0.9c0.3,0.4,0.4,0.8,0.4,1.3s-0.1,0.9-0.4,1.3
		c-0.3,0.4-0.6,0.7-1.1,0.9c-0.5,0.2-1,0.3-1.6,0.3H202.6z M200.7,74.1v-8.4h2.4v8.4H200.7z M205.2,74.1l-2.3-3.6l2.1-0.5l2.8,4
		H205.2z"/>
	<path class="st1" d="M220.3,74.2c-0.6,0-1.2-0.1-1.8-0.3c-0.5-0.2-1-0.5-1.4-0.9c-0.4-0.4-0.7-0.9-1-1.4c-0.2-0.5-0.3-1.1-0.3-1.7
		c0-0.6,0.1-1.2,0.3-1.7c0.2-0.5,0.6-1,1-1.4c0.4-0.4,0.9-0.7,1.4-0.9c0.5-0.2,1.1-0.3,1.8-0.3c0.7,0,1.2,0.1,1.8,0.3
		c0.5,0.2,1,0.5,1.4,0.8l-1.6,1.6c-0.2-0.2-0.4-0.4-0.7-0.5c-0.3-0.1-0.6-0.2-0.9-0.2c-0.3,0-0.6,0.1-0.9,0.2
		c-0.3,0.1-0.5,0.3-0.7,0.4c-0.2,0.2-0.3,0.4-0.4,0.7c-0.1,0.3-0.2,0.6-0.2,0.9c0,0.4,0.1,0.7,0.2,1c0.1,0.3,0.3,0.5,0.4,0.7
		c0.2,0.2,0.4,0.3,0.7,0.5c0.3,0.1,0.6,0.2,0.9,0.2c0.4,0,0.7-0.1,0.9-0.2c0.3-0.1,0.5-0.3,0.7-0.5l1.6,1.6
		c-0.4,0.4-0.9,0.6-1.4,0.8C221.6,74.1,221,74.2,220.3,74.2z"/>
	<path class="st1" d="M230.9,74.2c-0.7,0-1.3-0.1-1.8-0.3c-0.5-0.2-1-0.5-1.4-0.9c-0.4-0.4-0.7-0.9-1-1.4c-0.2-0.5-0.3-1.1-0.3-1.7
		c0-0.6,0.1-1.2,0.3-1.7c0.2-0.5,0.5-1,1-1.4c0.4-0.4,0.9-0.7,1.4-0.9c0.6-0.2,1.2-0.3,1.8-0.3s1.3,0.1,1.8,0.3
		c0.6,0.2,1,0.5,1.4,0.9c0.4,0.4,0.7,0.9,0.9,1.4c0.2,0.5,0.3,1.1,0.3,1.7c0,0.6-0.1,1.2-0.3,1.7c-0.2,0.5-0.5,1-0.9,1.4
		c-0.4,0.4-0.9,0.7-1.4,0.9C232.1,74.1,231.5,74.2,230.9,74.2z M230.8,72.2c0.4,0,0.8-0.1,1.1-0.3c0.3-0.2,0.6-0.5,0.7-0.8
		c0.2-0.3,0.3-0.7,0.3-1.2c0-0.3-0.1-0.7-0.2-0.9c-0.1-0.3-0.2-0.5-0.4-0.7c-0.2-0.2-0.4-0.4-0.7-0.5c-0.3-0.1-0.6-0.2-0.9-0.2
		c-0.4,0-0.8,0.1-1.1,0.3c-0.3,0.2-0.6,0.4-0.7,0.8c-0.2,0.3-0.3,0.7-0.3,1.2c0,0.4,0,0.7,0.1,1c0.1,0.3,0.2,0.5,0.4,0.7
		c0.2,0.2,0.4,0.3,0.7,0.5C230.2,72.1,230.5,72.2,230.8,72.2z"/>
	<path class="st1" d="M239,74.1v-8.4h1.7l3.1,4.6h-0.7l3.1-4.6h1.7v8.4h-2.3v-4.5l0.3,0.1l-1.7,2.4h-1.5l-1.7-2.4l0.3-0.1v4.5H239z"
		/>
	<path class="st1" d="M253.9,71.1v-1.7h1.5c0.2,0,0.3,0,0.5-0.1c0.2-0.1,0.3-0.2,0.4-0.3c0.1-0.2,0.1-0.3,0.1-0.6
		c0-0.2,0-0.4-0.1-0.6c-0.1-0.2-0.2-0.3-0.4-0.3c-0.1-0.1-0.3-0.1-0.5-0.1h-1.5v-1.7h2c0.5,0,1,0.1,1.5,0.3c0.4,0.2,0.8,0.5,1,0.9
		c0.3,0.4,0.4,0.9,0.4,1.5c0,0.6-0.1,1.1-0.4,1.5c-0.3,0.4-0.6,0.7-1,0.9c-0.4,0.2-0.9,0.3-1.5,0.3H253.9z M252,74.1v-8.4h2.4v8.4
		H252z"/>
	<path class="st1" d="M261.2,74.1l3.2-8.4h2.4l3.2,8.4h-2.4l-2.3-7.1h0.8l-2.4,7.1H261.2z M263.3,72.7v-1.8h4.7v1.8H263.3z"/>
	<path class="st1" d="M273.3,74.1v-8.4h1.6l0.7,1.8v6.6H273.3z M279.1,74.1l-4.9-6.1l0.7-2.3l4.9,6.1L279.1,74.1z M279.1,74.1
		l-0.6-1.9v-6.5h2.4v8.4H279.1z"/>
	<path class="st1" d="M287.5,71.2l-3.2-5.5h2.7l2.4,4.5h-2l2.4-4.5h2.6l-3.2,5.5H287.5z M287.2,74.1v-3.7h2.4v3.7H287.2z"/>
</g>
</svg>
