<svg width="75" height="75" viewBox="0 0 75 75" fill="none" xmlns="http://www.w3.org/2000/svg">
<path d="M9.51643 21.344L9.51668 21.3435L18.8223 5.14919L37.4997 5.1875L37.5003 5.1875L56.1777 5.14919L65.4833 21.3435L65.4836 21.344L74.8555 37.5L65.4836 53.656L65.4833 53.6565L56.1777 69.8508L37.5003 69.8125L37.4997 69.8125L18.8223 69.8508L9.51668 53.6565L9.51643 53.656L0.144509 37.5L9.51643 21.344Z" fill="#ADB5BD" stroke="black" stroke-width="0.25"/>
<circle cx="37.5" cy="37.5" r="31.625" fill="#C4C4C4" stroke="black" stroke-width="0.25"/>
<path d="M28.456 57.32V56.324H30.712V65H29.608V57.32H28.456ZM32.5878 60.572C32.5878 59.196 32.8118 58.124 33.2598 57.356C33.7078 56.58 34.4918 56.192 35.6118 56.192C36.7238 56.192 37.5038 56.58 37.9518 57.356C38.3997 58.124 38.6237 59.196 38.6237 60.572C38.6237 61.972 38.3997 63.06 37.9518 63.836C37.5038 64.612 36.7238 65 35.6118 65C34.4918 65 33.7078 64.612 33.2598 63.836C32.8118 63.06 32.5878 61.972 32.5878 60.572ZM37.5438 60.572C37.5438 59.876 37.4958 59.288 37.3998 58.808C37.3118 58.32 37.1238 57.928 36.8358 57.632C36.5558 57.336 36.1478 57.188 35.6118 57.188C35.0678 57.188 34.6518 57.336 34.3638 57.632C34.0838 57.928 33.8958 58.32 33.7998 58.808C33.7118 59.288 33.6678 59.876 33.6678 60.572C33.6678 61.292 33.7118 61.896 33.7998 62.384C33.8958 62.872 34.0838 63.264 34.3638 63.56C34.6518 63.856 35.0678 64.004 35.6118 64.004C36.1478 64.004 36.5558 63.856 36.8358 63.56C37.1238 63.264 37.3118 62.872 37.3998 62.384C37.4958 61.896 37.5438 61.292 37.5438 60.572ZM40.6509 65.072C40.4429 65.072 40.2669 65 40.1229 64.856C39.9789 64.712 39.9069 64.536 39.9069 64.328C39.9069 64.12 39.9789 63.944 40.1229 63.8C40.2669 63.656 40.4429 63.584 40.6509 63.584C40.8509 63.584 41.0189 63.656 41.1549 63.8C41.2989 63.944 41.3709 64.12 41.3709 64.328C41.3709 64.536 41.2989 64.712 41.1549 64.856C41.0189 65 40.8509 65.072 40.6509 65.072ZM44.0464 62.672C44.1264 63.128 44.3104 63.48 44.5984 63.728C44.8944 63.976 45.2904 64.1 45.7864 64.1C46.4504 64.1 46.9384 63.84 47.2504 63.32C47.5704 62.8 47.7224 61.924 47.7064 60.692C47.5384 61.052 47.2584 61.336 46.8664 61.544C46.4744 61.744 46.0384 61.844 45.5584 61.844C45.0224 61.844 44.5424 61.736 44.1184 61.52C43.7024 61.296 43.3744 60.972 43.1344 60.548C42.8944 60.124 42.7744 59.612 42.7744 59.012C42.7744 58.156 43.0224 57.468 43.5184 56.948C44.0144 56.42 44.7184 56.156 45.6304 56.156C46.7504 56.156 47.5344 56.52 47.9824 57.248C48.4384 57.976 48.6664 59.06 48.6664 60.5C48.6664 61.508 48.5744 62.34 48.3904 62.996C48.2144 63.652 47.9104 64.152 47.4784 64.496C47.0544 64.84 46.4704 65.012 45.7264 65.012C44.9104 65.012 44.2744 64.792 43.8184 64.352C43.3624 63.912 43.1024 63.352 43.0384 62.672H44.0464ZM45.7384 60.92C46.2744 60.92 46.7144 60.756 47.0584 60.428C47.4024 60.092 47.5744 59.64 47.5744 59.072C47.5744 58.472 47.4064 57.988 47.0704 57.62C46.7344 57.252 46.2624 57.068 45.6544 57.068C45.0944 57.068 44.6464 57.244 44.3104 57.596C43.9824 57.948 43.8184 58.412 43.8184 58.988C43.8184 59.572 43.9824 60.04 44.3104 60.392C44.6384 60.744 45.1144 60.92 45.7384 60.92Z" fill="black"/>
</svg>
