<svg width="75" height="75" viewBox="0 0 75 75" fill="none" xmlns="http://www.w3.org/2000/svg">
<path d="M9.51643 21.344L9.51668 21.3435L18.8223 5.14919L37.4997 5.1875L37.5003 5.1875L56.1777 5.14919L65.4833 21.3435L65.4836 21.344L74.8555 37.5L65.4836 53.656L65.4833 53.6565L56.1777 69.8508L37.5003 69.8125L37.4997 69.8125L18.8223 69.8508L9.51668 53.6565L9.51643 53.656L0.144509 37.5L9.51643 21.344Z" fill="#ADB5BD" stroke="black" stroke-width="0.25"/>
<circle cx="37.5" cy="37.5" r="31.625" fill="#C4C4C4" stroke="black" stroke-width="0.25"/>
<path d="M32.328 61.488C31.88 61.312 31.536 61.056 31.296 60.72C31.056 60.384 30.936 59.976 30.936 59.496C30.936 59.064 31.044 58.676 31.26 58.332C31.476 57.98 31.796 57.704 32.22 57.504C32.652 57.296 33.172 57.192 33.78 57.192C34.388 57.192 34.904 57.296 35.328 57.504C35.76 57.704 36.084 57.98 36.3 58.332C36.524 58.676 36.636 59.064 36.636 59.496C36.636 59.96 36.512 60.368 36.264 60.72C36.016 61.064 35.676 61.32 35.244 61.488C35.74 61.64 36.132 61.908 36.42 62.292C36.716 62.668 36.864 63.124 36.864 63.66C36.864 64.18 36.736 64.636 36.48 65.028C36.224 65.412 35.86 65.712 35.388 65.928C34.924 66.136 34.388 66.24 33.78 66.24C33.172 66.24 32.636 66.136 32.172 65.928C31.716 65.712 31.36 65.412 31.104 65.028C30.848 64.636 30.72 64.18 30.72 63.66C30.72 63.124 30.864 62.664 31.152 62.28C31.44 61.896 31.832 61.632 32.328 61.488ZM35.58 59.628C35.58 59.14 35.42 58.764 35.1 58.5C34.78 58.236 34.34 58.104 33.78 58.104C33.228 58.104 32.792 58.236 32.472 58.5C32.152 58.764 31.992 59.144 31.992 59.64C31.992 60.088 32.156 60.448 32.484 60.72C32.82 60.992 33.252 61.128 33.78 61.128C34.316 61.128 34.748 60.992 35.076 60.72C35.412 60.44 35.58 60.076 35.58 59.628ZM33.78 61.968C33.188 61.968 32.704 62.108 32.328 62.388C31.952 62.66 31.764 63.072 31.764 63.624C31.764 64.136 31.944 64.548 32.304 64.86C32.672 65.172 33.164 65.328 33.78 65.328C34.396 65.328 34.884 65.172 35.244 64.86C35.604 64.548 35.784 64.136 35.784 63.624C35.784 63.088 35.6 62.68 35.232 62.4C34.864 62.112 34.38 61.968 33.78 61.968ZM38.8423 66.072C38.6343 66.072 38.4583 66 38.3143 65.856C38.1703 65.712 38.0983 65.536 38.0983 65.328C38.0983 65.12 38.1703 64.944 38.3143 64.8C38.4583 64.656 38.6343 64.584 38.8423 64.584C39.0423 64.584 39.2103 64.656 39.3463 64.8C39.4903 64.944 39.5623 65.12 39.5623 65.328C39.5623 65.536 39.4903 65.712 39.3463 65.856C39.2103 66 39.0423 66.072 38.8423 66.072ZM42.4178 61.488C41.9698 61.312 41.6258 61.056 41.3858 60.72C41.1458 60.384 41.0258 59.976 41.0258 59.496C41.0258 59.064 41.1338 58.676 41.3498 58.332C41.5658 57.98 41.8858 57.704 42.3098 57.504C42.7418 57.296 43.2618 57.192 43.8698 57.192C44.4778 57.192 44.9938 57.296 45.4178 57.504C45.8498 57.704 46.1738 57.98 46.3898 58.332C46.6138 58.676 46.7258 59.064 46.7258 59.496C46.7258 59.96 46.6018 60.368 46.3538 60.72C46.1058 61.064 45.7658 61.32 45.3338 61.488C45.8298 61.64 46.2218 61.908 46.5098 62.292C46.8058 62.668 46.9538 63.124 46.9538 63.66C46.9538 64.18 46.8258 64.636 46.5698 65.028C46.3138 65.412 45.9498 65.712 45.4778 65.928C45.0138 66.136 44.4778 66.24 43.8698 66.24C43.2618 66.24 42.7258 66.136 42.2618 65.928C41.8058 65.712 41.4498 65.412 41.1938 65.028C40.9378 64.636 40.8098 64.18 40.8098 63.66C40.8098 63.124 40.9538 62.664 41.2418 62.28C41.5298 61.896 41.9218 61.632 42.4178 61.488ZM45.6698 59.628C45.6698 59.14 45.5098 58.764 45.1898 58.5C44.8698 58.236 44.4298 58.104 43.8698 58.104C43.3178 58.104 42.8818 58.236 42.5618 58.5C42.2418 58.764 42.0818 59.144 42.0818 59.64C42.0818 60.088 42.2458 60.448 42.5738 60.72C42.9098 60.992 43.3418 61.128 43.8698 61.128C44.4058 61.128 44.8378 60.992 45.1658 60.72C45.5018 60.44 45.6698 60.076 45.6698 59.628ZM43.8698 61.968C43.2778 61.968 42.7938 62.108 42.4178 62.388C42.0418 62.66 41.8538 63.072 41.8538 63.624C41.8538 64.136 42.0338 64.548 42.3938 64.86C42.7618 65.172 43.2538 65.328 43.8698 65.328C44.4858 65.328 44.9738 65.172 45.3338 64.86C45.6938 64.548 45.8738 64.136 45.8738 63.624C45.8738 63.088 45.6898 62.68 45.3218 62.4C44.9538 62.112 44.4698 61.968 43.8698 61.968Z" fill="black"/>
</svg>
