<?xml version="1.0" encoding="utf-8"?>
<!-- Generator: Adobe Illustrator 26.1.0, SVG Export Plug-In . SVG Version: 6.00 Build 0)  -->
<svg version="1.1" id="Capa_1" xmlns="http://www.w3.org/2000/svg" xmlns:xlink="http://www.w3.org/1999/xlink" x="0px" y="0px"
	 viewBox="0 0 512 512" style="enable-background:new 0 0 512 512;" xml:space="preserve">
<style type="text/css">
	.st0{fill:#EEEEEE;}
</style>
<g>
	<g id="iconos_47_">
		<path class="st0" d="M73,260.8c0,103.3,84,187.3,187.3,187.3s187.3-84,187.3-187.3s-84-187.3-187.3-187.3
			C157,73.5,73,157.5,73,260.8z M379.8,260.8c0,66-53.5,119.5-119.5,119.5s-119.5-53.5-119.5-119.5s53.5-119.5,119.5-119.5
			C326.3,141.3,379.8,194.8,379.8,260.8z"/>
		<path class="st0" d="M128,31.3L0,256l128,224.7h256L512,256L384,31.3H128z M457.1,260.8c0,108.5-88.3,196.8-196.8,196.8
			c-108.5,0-196.8-88.3-196.8-196.8S151.7,64,260.3,64C368.8,64,457.1,152.3,457.1,260.8z"/>
	</g>
</g>
</svg>
