<?xml version="1.0" encoding="utf-8"?>
<!-- Generator: Adobe Illustrator 26.1.0, SVG Export Plug-In . SVG Version: 6.00 Build 0)  -->
<svg version="1.1" id="Layer_1" xmlns="http://www.w3.org/2000/svg" xmlns:xlink="http://www.w3.org/1999/xlink" x="0px" y="0px"
	 viewBox="0 0 300 90" style="enable-background:new 0 0 300 90;" xml:space="preserve">
<style type="text/css">
	.st0{fill:#002868;}
	.st1{fill-rule:evenodd;clip-rule:evenodd;}
	.st2{fill:none;stroke:#000000;stroke-width:2;}
</style>
<g>
	<path class="st0" d="M63.4,64.4V7.5h16v56.9H63.4z M46.4,21.1V7.5h50.2v13.6H46.4z"/>
	<path d="M38.4,64.5L18.4,34.8l19-27.3h19.3L34.8,37.1L34.7,32l22.9,32.5H38.4z M3.8,64.5v-57h16v57H3.8z"/>
	<path class="st1" d="M124.2,53h-7.8V40.6h7.8c1.4,0,2.6,0.2,3.5,0.7c1,0.5,1.8,1.2,2.3,2.2c0.6,0.9,0.9,2,0.9,3.3
		c0,1.9-0.6,3.4-1.8,4.6C127.9,52.4,126.3,53,124.2,53z M116.5,29.6h7c1.7,0,3.1-0.4,4.2-1.3c1.1-0.9,1.7-2.2,1.7-4s-0.6-3.1-1.7-4
		c-1.1-0.9-2.5-1.3-4.2-1.3h-7V29.6z M116.5,7.5H128c3.5,0,6.5,0.7,9,2c2.6,1.3,4.6,3.1,6.1,5.4c1.4,2.2,2.2,4.8,2.2,7.8
		c0,4.1-1.4,7.4-4.3,9.9c-0.7,0.6-1.4,1.1-2.2,1.6c1.2,0.6,2.3,1.4,3.2,2.3c3.2,2.9,4.8,6.7,4.8,11.3c0,3.3-0.8,6.2-2.5,8.8
		c-1.7,2.5-4,4.5-7,5.9c-2.9,1.4-6.4,2.1-10.3,2.1h-10.6h-2.7h-13v-57h13H116.5z M165.7,63.3c3.8,1.5,7.9,2.2,12.4,2.2
		c4.4,0,8.5-0.7,12.2-2.2c3.7-1.5,7-3.6,9.8-6.2c2.8-2.7,4.9-5.9,6.4-9.4c1.5-3.6,2.3-7.5,2.3-11.8c0-4.3-0.8-8.2-2.3-11.8
		c-1.5-3.6-3.6-6.8-6.4-9.4c-2.8-2.7-6.1-4.7-9.8-6.2c-3.7-1.5-7.8-2.2-12.3-2.2c-4.5,0-8.6,0.7-12.4,2.2c-3.7,1.4-7,3.5-9.8,6.2
		c-2.8,2.7-4.9,5.8-6.5,9.4c-1.5,3.6-2.2,7.5-2.2,11.8c0,4.2,0.8,8.1,2.3,11.8c1.5,3.6,3.7,6.8,6.5,9.4
		C158.7,59.8,162,61.9,165.7,63.3z M227.8,7.5h-16v57h13h3h23.7V50.9h-23.7V7.5z M262.7,21.1v43.4h16V21.1h17.1V7.5h-17.1h-16h-17
		v13.6H262.7z M191.2,28.1l-4.4-8.2l-9.2,0.3l-9.2-0.3l-4.4,8.2l-4.9,7.9l4.9,7.9l4.4,8.2l9.2-0.3l9.2,0.3l4.4-8.2l4.9-7.9
		L191.2,28.1z"/>
	<path class="st2" d="M188.9,29.5L188.9,29.5L188.9,29.5l4.1,6.5l-4,6.5l0,0l0,0l-3.6,6.7l-7.6-0.2l0,0l0,0l-7.6,0.2l-3.6-6.7l0,0
		l0,0l-4-6.5l4-6.5l0,0l0,0l3.6-6.7l7.6,0.2l0,0l0,0l7.6-0.2L188.9,29.5z"/>
	<path d="M20.8,69.3v14.2h-4.4v-7.1l-2.2,7.1h-3.8l-2.2-7.1v7.1H3.8V69.3h5.4l3.1,8.5l3-8.5H20.8z M41.1,81.3h-4.7l-0.7,2.1H31
		l5.2-14.2h5.1l5.2,14.2h-4.7L41.1,81.3z M40,78l-1.3-3.9L37.4,78H40z M70.2,83.5h-4.4l-4.7-7.1v7.1h-4.4V69.3h4.4l4.7,7.2v-7.2h4.4
		V83.5z M85.8,69.3v8c0,0.7,0.1,1.2,0.4,1.6c0.3,0.4,0.8,0.6,1.4,0.6s1.1-0.2,1.4-0.6c0.3-0.4,0.5-0.9,0.5-1.6v-8h4.4v8
		c0,1.3-0.3,2.5-0.8,3.5c-0.6,0.9-1.3,1.7-2.3,2.1c-1,0.5-2.1,0.7-3.3,0.7c-1.2,0-2.3-0.2-3.2-0.7c-0.9-0.5-1.6-1.2-2.2-2.1
		c-0.5-0.9-0.8-2.1-0.8-3.5v-8H85.8z M115,69.3v3.5h-5.6v2h4v3.3h-4v5.3H105V69.3H115z M134.8,81.3h-4.7l-0.7,2.1h-4.7l5.2-14.2h5.1
		l5.2,14.2h-4.7L134.8,81.3z M133.7,78l-1.3-3.9l-1.3,3.9H133.7z M150,76.4c0-1.4,0.3-2.6,0.8-3.7c0.6-1.1,1.4-1.9,2.4-2.5
		c1.1-0.6,2.3-0.9,3.7-0.9c1.2,0,2.3,0.2,3.3,0.7c1,0.5,1.8,1.1,2.4,1.9c0.6,0.8,1,1.8,1.2,2.9h-4.7c-0.2-0.5-0.5-0.8-0.9-1.1
		c-0.4-0.3-0.8-0.4-1.3-0.4c-0.7,0-1.3,0.3-1.8,0.8c-0.4,0.6-0.6,1.3-0.6,2.3s0.2,1.7,0.6,2.3c0.4,0.6,1,0.8,1.8,0.8
		c0.5,0,1-0.1,1.3-0.4c0.4-0.3,0.7-0.6,0.9-1.1h4.7c-0.2,1.1-0.6,2.1-1.2,2.9c-0.6,0.8-1.4,1.5-2.4,2c-1,0.5-2.1,0.7-3.3,0.7
		c-1.4,0-2.7-0.3-3.7-0.9c-1.1-0.6-1.9-1.5-2.4-2.6C150.3,79,150,77.8,150,76.4z M185.8,69.3v3.5H182v10.6h-4.4V72.8h-3.7v-3.5
		H185.8z M200.5,69.3v8c0,0.7,0.1,1.2,0.4,1.6c0.3,0.4,0.8,0.6,1.4,0.6s1.1-0.2,1.4-0.6c0.3-0.4,0.5-0.9,0.5-1.6v-8h4.4v8
		c0,1.3-0.3,2.5-0.8,3.5c-0.6,0.9-1.3,1.7-2.3,2.1c-1,0.5-2.1,0.7-3.3,0.7c-1.2,0-2.3-0.2-3.2-0.7c-0.9-0.5-1.6-1.2-2.2-2.1
		c-0.5-0.9-0.8-2.1-0.8-3.5v-8H200.5z M226.9,83.5l-2.7-5.1h0v5.1h-4.4V69.3h6.6c1.1,0,2.1,0.2,2.9,0.6c0.8,0.4,1.4,1,1.8,1.7
		c0.4,0.7,0.6,1.5,0.6,2.4c0,0.9-0.3,1.8-0.8,2.5c-0.5,0.7-1.3,1.3-2.3,1.6l3.1,5.4H226.9z M224.2,75.4h1.8c0.4,0,0.7-0.1,1-0.3
		c0.2-0.2,0.3-0.5,0.3-0.9c0-0.4-0.1-0.7-0.3-0.9c-0.2-0.2-0.5-0.3-0.9-0.3h-1.8V75.4z M246.8,69.3v14.2h-4.4V69.3H246.8z
		 M271.6,83.5h-4.4l-4.7-7.1v7.1H258V69.3h4.4l4.7,7.2v-7.2h4.4V83.5z M291.5,74.2c-0.2-0.3-0.4-0.5-0.7-0.6
		c-0.3-0.2-0.7-0.2-1.2-0.2c-0.9,0-1.5,0.3-2,0.8c-0.5,0.5-0.7,1.3-0.7,2.3c0,1.1,0.3,1.9,0.8,2.5c0.5,0.5,1.3,0.8,2.4,0.8
		c1,0,1.9-0.4,2.5-1.2H289v-3.1h7.2v4.4c-0.6,1.1-1.5,2-2.5,2.7c-1.1,0.7-2.4,1.1-4.1,1.1c-1.5,0-2.7-0.3-3.8-0.9
		c-1.1-0.6-1.9-1.5-2.5-2.6c-0.6-1.1-0.9-2.3-0.9-3.7s0.3-2.6,0.9-3.7c0.6-1.1,1.4-1.9,2.5-2.5c1.1-0.6,2.3-0.9,3.8-0.9
		c1.9,0,3.4,0.4,4.5,1.3c1.2,0.9,1.9,2.1,2.1,3.6H291.5z"/>
</g>
</svg>
